<svg width="1228" height="867" viewBox="0 0 1228 867" fill="none" xmlns="http://www.w3.org/2000/svg">
<path d="M756 0C757.376 4.12938 755.75 6.5579 754.055 10.332C753.734 11.0666 753.413 11.8012 753.083 12.558C752.022 14.9802 750.949 17.3962 749.875 19.8125C749.13 21.5094 748.385 23.2068 747.642 24.9045C746.137 28.3377 744.628 31.7688 743.114 35.1982C740.293 41.597 737.522 48.0171 734.75 54.4375C733.695 56.8739 732.639 59.3102 731.582 61.7461C731.306 62.3823 731.03 63.0185 730.746 63.674C722.736 82.1352 714.704 100.587 706.677 119.041C703.639 126.027 700.601 133.014 697.562 140C697.139 140.973 696.716 141.946 696.28 142.949C691.346 154.296 686.417 165.645 681.5 177C676.157 189.338 670.799 201.67 665.438 214C665.015 214.972 664.592 215.944 664.157 216.945C660.664 224.977 657.171 233.009 653.677 241.041C650.639 248.027 647.601 255.014 644.562 262C644.139 262.973 643.716 263.946 643.28 264.949C638.346 276.296 633.417 287.645 628.5 299C623.157 311.338 617.799 323.67 612.438 336C612.015 336.972 611.592 337.944 611.157 338.945C607.664 346.977 604.171 355.009 600.677 363.041C597.639 370.027 594.601 377.014 591.562 384C591.139 384.973 590.716 385.946 590.28 386.949C584.84 399.459 579.409 411.973 573.988 424.492C569.211 435.52 564.418 446.541 559.625 457.562C552.242 474.538 544.868 491.518 537.5 508.5C530.277 525.148 523.05 541.795 515.812 558.438C515.408 559.369 515.003 560.3 514.586 561.259C511.724 567.839 508.862 574.42 506 581C502.521 589 499.041 597 495.562 605C495.138 605.975 494.714 606.95 494.277 607.955C489.344 619.3 484.416 630.647 479.5 642C474.157 654.338 468.799 666.67 463.438 679C463.015 679.972 462.592 680.944 462.157 681.945C458.664 689.977 455.171 698.009 451.677 706.041C448.639 713.027 445.601 720.014 442.562 727C442.139 727.973 441.716 728.946 441.28 729.949C435.844 742.451 430.414 754.956 424.999 767.468C421.806 774.842 418.603 782.211 415.395 789.578C404.173 815.347 393.04 841.153 382 867C379 866 379 866 377.309 862.805C376.674 861.357 376.051 859.903 375.438 858.445C375.094 857.654 374.751 856.863 374.397 856.048C373.255 853.411 372.128 850.768 371 848.125C370.197 846.266 369.393 844.407 368.588 842.549C366.901 838.656 365.219 834.76 363.539 830.864C359.972 822.608 356.327 814.387 352.682 806.166C350.691 801.674 348.705 797.181 346.719 792.688C346.326 791.799 345.933 790.91 345.528 789.994C340.962 779.657 336.424 769.307 331.885 758.958C326.112 745.795 320.314 732.644 314.5 719.5C307.938 704.663 301.401 689.815 294.885 674.958C289.112 661.795 283.314 648.645 277.5 635.5C271.294 621.467 265.103 607.426 258.938 593.375C258.568 592.532 258.198 591.69 257.817 590.821C254.839 584.034 251.862 577.246 248.885 570.458C246.278 564.514 243.671 558.569 241.062 552.625C240.693 551.782 240.323 550.94 239.942 550.072C233.752 535.968 227.532 521.878 221.302 507.793C215.14 493.858 209.004 479.912 202.885 465.958C197.112 452.795 191.314 439.644 185.5 426.5C178.938 411.663 172.401 396.815 165.885 381.958C160.112 368.795 154.314 355.644 148.5 342.5C141.938 327.663 135.401 312.815 128.885 297.958C123.112 284.795 117.314 271.645 111.5 258.5C105.294 244.467 99.1033 230.426 92.9375 216.375C92.5677 215.532 92.1978 214.69 91.8168 213.821C88.8387 207.034 85.862 200.246 82.8854 193.458C80.2784 187.514 77.6709 181.569 75.0625 175.625C74.6928 174.782 74.323 173.94 73.9421 173.072C67.7523 158.968 61.5325 144.878 55.3025 130.793C49.1425 116.864 43.0093 102.924 36.8933 88.9761C30.9536 75.4315 24.9834 61.9005 19 48.375C12.614 33.9392 6.25695 19.4923 0 5C3.59924 5 3.99619 5.57478 6.5625 7.9375C7.61631 8.89463 7.61631 8.89463 8.69141 9.87109C9.45324 10.5736 10.2151 11.2762 11 12C12.6652 13.5016 14.3319 15.0016 16 16.5C16.8456 17.2631 17.6913 18.0263 18.5625 18.8125C20.6942 20.7255 22.8402 22.6189 25 24.5C28.0275 27.1369 31.0194 29.8102 34 32.5C39.3233 37.2991 44.6886 42.0408 50.1523 46.6797C56.7332 52.2744 63.1977 57.9574 69.5195 63.8438C72.9737 67.0597 76.4744 70.2052 80.043 73.293C82.3856 75.3363 84.6927 77.4168 87 79.5C92.3233 84.2991 97.6886 89.0408 103.152 93.6797C109.733 99.2744 116.198 104.957 122.52 110.844C125.974 114.06 129.474 117.205 133.043 120.293C135.386 122.336 137.693 124.417 140 126.5C145.323 131.299 150.689 136.041 156.152 140.68C162.733 146.274 169.198 151.957 175.52 157.844C178.974 161.06 182.474 164.205 186.043 167.293C188.386 169.336 190.693 171.417 193 173.5C198.323 178.299 203.689 183.041 209.152 187.68C215.733 193.274 222.198 198.957 228.52 204.844C231.974 208.06 235.474 211.205 239.043 214.293C241.386 216.336 243.693 218.417 246 220.5C251.323 225.299 256.689 230.041 262.152 234.68C268.733 240.274 275.198 245.957 281.52 251.844C284.974 255.06 288.474 258.205 292.043 261.293C294.386 263.336 296.693 265.417 299 267.5C304.323 272.299 309.689 277.041 315.152 281.68C321.733 287.274 328.198 292.957 334.52 298.844C337.974 302.06 341.474 305.205 345.043 308.293C347.386 310.336 349.693 312.417 352 314.5C360.174 321.867 368.527 328.981 377 336C377.428 335.632 377.857 335.264 378.298 334.885C381.289 332.32 384.282 329.758 387.289 327.211C393.829 321.659 400.241 316.003 406.519 310.156C409.974 306.94 413.474 303.795 417.043 300.707C419.386 298.664 421.693 296.583 424 294.5C427.617 291.236 431.264 288.012 434.938 284.812C437.31 282.728 439.656 280.616 442 278.5C445.617 275.236 449.264 272.012 452.938 268.812C455.31 266.728 457.656 264.616 460 262.5C463.617 259.236 467.264 256.012 470.938 252.812C473.31 250.728 475.656 248.616 478 246.5C483.323 241.701 488.689 236.959 494.152 232.32C500.733 226.726 507.198 221.043 513.52 215.156C516.974 211.94 520.474 208.795 524.043 205.707C526.386 203.664 528.693 201.583 531 199.5C534.617 196.236 538.264 193.012 541.938 189.812C544.31 187.728 546.656 185.616 549 183.5C552.617 180.236 556.264 177.012 559.938 173.812C562.31 171.728 564.656 169.616 567 167.5C570.617 164.236 574.264 161.012 577.938 157.812C580.31 155.728 582.656 153.616 585 151.5C590.323 146.701 595.689 141.959 601.152 137.32C607.733 131.726 614.198 126.043 620.52 120.156C623.974 116.94 627.474 113.795 631.043 110.707C633.386 108.664 635.693 106.583 638 104.5C641.617 101.236 645.264 98.0121 648.938 94.8125C651.31 92.7279 653.656 90.6157 656 88.5C659.617 85.2361 663.264 82.0121 666.938 78.8125C669.31 76.7279 671.656 74.6157 674 72.5C677.617 69.2361 681.264 66.0121 684.938 62.8125C687.31 60.7279 689.656 58.6157 692 56.5C697.323 51.7009 702.689 46.9592 708.152 42.3203C714.733 36.7256 721.198 31.0426 727.52 25.1562C730.971 21.9428 734.468 18.7991 738.035 15.7148C740.424 13.6297 742.774 11.5027 745.125 9.375C748.685 6.16151 752.284 3.03115 756 0Z" fill="#0A2549"/>
<path d="M847 0C847.66 0 848.32 0 849 0C857.701 19.5195 866.358 39.0579 874.938 58.6308C880.769 71.9308 886.626 85.2192 892.5 98.5C898.706 112.533 904.897 126.574 911.062 140.625C911.617 141.889 911.617 141.889 912.183 143.179C915.161 149.966 918.138 156.754 921.115 163.542C923.722 169.486 926.329 175.431 928.938 181.375C929.307 182.218 929.677 183.06 930.058 183.928C936.248 198.032 942.468 212.122 948.697 226.207C954.86 240.142 960.996 254.088 967.115 268.042C972.888 281.205 978.686 294.356 984.5 307.5C991.062 322.337 997.599 337.185 1004.11 352.042C1009.89 365.205 1015.69 378.356 1021.5 391.5C1028.06 406.337 1034.6 421.185 1041.11 436.042C1046.89 449.205 1052.69 462.355 1058.5 475.5C1064.71 489.533 1070.9 503.574 1077.06 517.625C1077.43 518.468 1077.8 519.31 1078.18 520.179C1081.16 526.966 1084.14 533.754 1087.11 540.542C1089.72 546.486 1092.33 552.431 1094.94 558.375C1095.31 559.218 1095.68 560.06 1096.06 560.928C1102.25 575.032 1108.47 589.122 1114.7 603.207C1120.86 617.142 1127 631.088 1133.11 645.042C1138.89 658.205 1144.69 671.356 1150.5 684.5C1157.06 699.337 1163.6 714.185 1170.11 729.042C1175.89 742.205 1181.69 755.355 1187.5 768.5C1195.65 786.935 1203.78 805.38 1211.86 823.847C1213.92 828.542 1215.99 833.231 1218.07 837.914C1219.32 840.741 1220.57 843.571 1221.82 846.402C1222.39 847.704 1222.97 849.004 1223.55 850.302C1224.34 852.059 1225.11 853.823 1225.89 855.586C1226.32 856.566 1226.76 857.546 1227.21 858.556C1228 861 1228 861 1227 864C1226.15 863.215 1225.31 862.43 1224.44 861.621C1219 856.583 1213.56 851.558 1207.96 846.707C1205.61 844.664 1203.31 842.583 1201 840.5C1197.38 837.233 1193.73 834.005 1190.05 830.805C1187.74 828.77 1185.46 826.698 1183.19 824.625C1179.81 821.571 1176.37 818.656 1172.81 815.812C1166.75 810.91 1161.12 805.577 1155.45 800.23C1152.32 797.29 1149.14 794.436 1145.89 791.637C1143.56 789.621 1141.28 787.562 1139 785.5C1133.68 780.701 1128.31 775.959 1122.85 771.32C1116.27 765.726 1109.8 760.043 1103.48 754.156C1100.03 750.94 1096.53 747.795 1092.96 744.707C1090.61 742.664 1088.31 740.583 1086 738.5C1080.68 733.701 1075.31 728.959 1069.85 724.32C1063.27 718.726 1056.8 713.043 1050.48 707.156C1047.03 703.94 1043.53 700.795 1039.96 697.707C1037.61 695.664 1035.31 693.583 1033 691.5C1027.68 686.701 1022.31 681.959 1016.85 677.32C1010.27 671.726 1003.8 666.043 997.48 660.156C994.026 656.94 990.526 653.795 986.957 650.707C984.614 648.664 982.307 646.583 980 644.5C974.677 639.701 969.311 634.959 963.848 630.32C957.267 624.726 950.802 619.043 944.48 613.156C941.026 609.94 937.526 606.795 933.957 603.707C931.614 601.664 929.307 599.583 927 597.5C921.677 592.701 916.311 587.959 910.848 583.32C904.267 577.726 897.802 572.043 891.48 566.156C888.026 562.94 884.526 559.795 880.957 556.707C878.614 554.664 876.307 552.583 874 550.5C869.703 546.624 865.365 542.8 861 539C859.5 537.688 858 536.375 856.5 535.062C855.83 534.476 855.159 533.889 854.469 533.285C853.742 532.649 853.742 532.649 853 532C847.924 533.501 844.893 536.598 841.188 540.188C839.937 541.375 838.686 542.561 837.434 543.746C836.838 544.313 836.242 544.88 835.628 545.464C833.123 547.827 830.528 550.078 827.922 552.328C825.589 554.358 823.295 556.428 821 558.5C817.383 561.764 813.736 564.988 810.062 568.188C807.69 570.272 805.344 572.384 803 574.5C799.383 577.764 795.736 580.988 792.062 584.188C789.69 586.272 787.344 588.384 785 590.5C781.383 593.764 777.736 596.988 774.062 600.188C771.69 602.272 769.344 604.384 767 606.5C763.383 609.764 759.736 612.988 756.062 616.188C753.69 618.272 751.344 620.384 749 622.5C743.677 627.299 738.311 632.041 732.848 636.68C726.267 642.274 719.802 647.957 713.48 653.844C710.026 657.06 706.526 660.205 702.957 663.293C700.614 665.336 698.307 667.417 696 669.5C692.383 672.764 688.736 675.988 685.062 679.188C682.69 681.272 680.344 683.384 678 685.5C674.383 688.764 670.736 691.988 667.062 695.188C664.69 697.272 662.344 699.384 660 701.5C656.383 704.764 652.736 707.988 649.062 711.188C646.69 713.272 644.344 715.384 642 717.5C636.677 722.299 631.311 727.041 625.848 731.68C619.267 737.274 612.802 742.957 606.48 748.844C603.026 752.06 599.526 755.205 595.957 758.293C593.614 760.336 591.307 762.417 589 764.5C585.383 767.764 581.736 770.988 578.062 774.188C575.69 776.272 573.344 778.384 571 780.5C567.383 783.764 563.736 786.988 560.062 790.188C557.69 792.272 555.344 794.384 553 796.5C549.383 799.764 545.736 802.988 542.062 806.188C539.69 808.272 537.344 810.384 535 812.5C529.677 817.299 524.311 822.041 518.848 826.68C512.267 832.274 505.802 837.957 499.48 843.844C496.032 847.055 492.538 850.197 488.973 853.277C485.704 856.132 482.505 859.062 479.297 861.984C477.262 863.77 475.191 865.412 473 867C472.34 866.67 471.68 866.34 471 866C471.222 865.49 471.443 864.981 471.672 864.456C484.603 834.735 484.603 834.735 497.5 805C502.843 792.662 508.201 780.33 513.562 768C514.196 766.542 514.196 766.542 514.843 765.055C518.336 757.023 521.829 748.991 525.323 740.959C528.361 733.973 531.399 726.986 534.438 720C534.861 719.027 535.284 718.054 535.72 717.051C541.16 704.541 546.591 692.027 552.012 679.508C556.789 668.48 561.582 657.459 566.375 646.438C573.758 629.462 581.132 612.482 588.5 595.5C595.723 578.852 602.95 562.205 610.188 545.562C610.795 544.166 610.795 544.166 611.414 542.741C614.276 536.161 617.138 529.58 620 523C623.479 515 626.959 507 630.438 499C630.862 498.025 631.286 497.05 631.723 496.045C636.656 484.7 641.584 473.353 646.5 462C651.843 449.662 657.201 437.33 662.562 425C663.196 423.542 663.196 423.542 663.843 422.055C667.336 414.023 670.829 405.991 674.323 397.959C677.361 390.973 680.399 383.986 683.438 377C683.861 376.027 684.284 375.054 684.72 374.051C689.654 362.704 694.583 351.355 699.5 340C704.843 327.662 710.201 315.33 715.562 303C716.196 301.542 716.196 301.542 716.843 300.055C720.336 292.023 723.829 283.991 727.323 275.959C730.361 268.973 733.399 261.986 736.438 255C736.861 254.027 737.284 253.054 737.72 252.051C742.654 240.704 747.583 229.355 752.5 218C757.843 205.662 763.201 193.33 768.562 181C768.985 180.028 769.408 179.056 769.843 178.055C773.336 170.023 776.829 161.991 780.323 153.959C783.361 146.973 786.399 139.986 789.438 133C789.861 132.027 790.284 131.054 790.72 130.051C796.154 117.554 801.581 105.054 806.994 92.5476C810.225 85.0868 813.465 77.6301 816.711 70.1758C826.881 46.815 837 23.4339 847 0Z" fill="#0A2549"/>
</svg>
