<svg width="3467" height="867" viewBox="0 0 3467 867" fill="none" xmlns="http://www.w3.org/2000/svg">
<path d="M756 0C757.376 4.12938 755.75 6.5579 754.055 10.332C753.734 11.0666 753.413 11.8012 753.083 12.558C752.022 14.9802 750.949 17.3962 749.875 19.8125C749.13 21.5094 748.385 23.2068 747.642 24.9045C746.137 28.3377 744.628 31.7688 743.114 35.1982C740.293 41.597 737.522 48.0171 734.75 54.4375C733.695 56.8739 732.639 59.3102 731.582 61.7461C731.306 62.3823 731.03 63.0185 730.746 63.674C722.736 82.1352 714.704 100.587 706.677 119.041C703.639 126.027 700.601 133.014 697.562 140C697.139 140.973 696.716 141.946 696.28 142.949C691.346 154.296 686.417 165.645 681.5 177C676.157 189.338 670.799 201.67 665.438 214C665.015 214.972 664.592 215.944 664.157 216.945C660.664 224.977 657.171 233.009 653.677 241.041C650.639 248.027 647.601 255.014 644.562 262C644.139 262.973 643.716 263.946 643.28 264.949C638.346 276.296 633.417 287.645 628.5 299C623.157 311.338 617.799 323.67 612.438 336C612.015 336.972 611.592 337.944 611.157 338.945C607.664 346.977 604.171 355.009 600.677 363.041C597.639 370.027 594.601 377.014 591.562 384C591.139 384.973 590.716 385.946 590.28 386.949C584.84 399.459 579.409 411.973 573.988 424.492C569.211 435.52 564.418 446.541 559.625 457.562C552.242 474.538 544.868 491.518 537.5 508.5C530.277 525.148 523.05 541.795 515.812 558.438C515.408 559.369 515.003 560.3 514.586 561.259C511.724 567.839 508.862 574.42 506 581C502.521 589 499.041 597 495.562 605C495.138 605.975 494.714 606.95 494.277 607.955C489.344 619.3 484.416 630.647 479.5 642C474.157 654.338 468.799 666.67 463.438 679C463.015 679.972 462.592 680.944 462.157 681.945C458.664 689.977 455.171 698.009 451.677 706.041C448.639 713.027 445.601 720.014 442.562 727C442.139 727.973 441.716 728.946 441.28 729.949C435.844 742.451 430.414 754.956 424.999 767.468C421.806 774.842 418.603 782.211 415.395 789.578C404.173 815.347 393.04 841.153 382 867C379 866 379 866 377.309 862.805C376.674 861.357 376.051 859.903 375.438 858.445C375.094 857.654 374.751 856.863 374.397 856.048C373.255 853.411 372.128 850.768 371 848.125C370.197 846.266 369.393 844.407 368.588 842.549C366.901 838.656 365.219 834.76 363.539 830.864C359.972 822.608 356.327 814.387 352.682 806.166C350.691 801.674 348.705 797.181 346.719 792.688C346.326 791.799 345.933 790.91 345.528 789.994C340.962 779.657 336.424 769.307 331.885 758.958C326.112 745.795 320.314 732.644 314.5 719.5C307.938 704.663 301.401 689.815 294.885 674.958C289.112 661.795 283.314 648.645 277.5 635.5C271.294 621.467 265.103 607.426 258.938 593.375C258.568 592.532 258.198 591.69 257.817 590.821C254.839 584.034 251.862 577.246 248.885 570.458C246.278 564.514 243.671 558.569 241.062 552.625C240.693 551.782 240.323 550.94 239.942 550.072C233.752 535.968 227.532 521.878 221.302 507.793C215.14 493.858 209.004 479.912 202.885 465.958C197.112 452.795 191.314 439.644 185.5 426.5C178.938 411.663 172.401 396.815 165.885 381.958C160.112 368.795 154.314 355.644 148.5 342.5C141.938 327.663 135.401 312.815 128.885 297.958C123.112 284.795 117.314 271.645 111.5 258.5C105.294 244.467 99.1033 230.426 92.9375 216.375C92.5677 215.532 92.1978 214.69 91.8168 213.821C88.8387 207.034 85.862 200.246 82.8854 193.458C80.2784 187.514 77.6709 181.569 75.0625 175.625C74.6928 174.782 74.323 173.94 73.9421 173.072C67.7523 158.968 61.5325 144.878 55.3025 130.793C49.1425 116.864 43.0093 102.924 36.8933 88.9761C30.9536 75.4315 24.9834 61.9005 19 48.375C12.614 33.9392 6.25695 19.4923 0 5C3.59924 5 3.99619 5.57478 6.5625 7.9375C7.61631 8.89463 7.61631 8.89463 8.69141 9.87109C9.45324 10.5736 10.2151 11.2762 11 12C12.6652 13.5016 14.3319 15.0016 16 16.5C16.8456 17.2631 17.6913 18.0263 18.5625 18.8125C20.6942 20.7255 22.8402 22.6189 25 24.5C28.0275 27.1369 31.0194 29.8102 34 32.5C39.3233 37.2991 44.6886 42.0408 50.1523 46.6797C56.7332 52.2744 63.1977 57.9574 69.5195 63.8438C72.9737 67.0597 76.4744 70.2052 80.043 73.293C82.3856 75.3363 84.6927 77.4168 87 79.5C92.3233 84.2991 97.6886 89.0408 103.152 93.6797C109.733 99.2744 116.198 104.957 122.52 110.844C125.974 114.06 129.474 117.205 133.043 120.293C135.386 122.336 137.693 124.417 140 126.5C145.323 131.299 150.689 136.041 156.152 140.68C162.733 146.274 169.198 151.957 175.52 157.844C178.974 161.06 182.474 164.205 186.043 167.293C188.386 169.336 190.693 171.417 193 173.5C198.323 178.299 203.689 183.041 209.152 187.68C215.733 193.274 222.198 198.957 228.52 204.844C231.974 208.06 235.474 211.205 239.043 214.293C241.386 216.336 243.693 218.417 246 220.5C251.323 225.299 256.689 230.041 262.152 234.68C268.733 240.274 275.198 245.957 281.52 251.844C284.974 255.06 288.474 258.205 292.043 261.293C294.386 263.336 296.693 265.417 299 267.5C304.323 272.299 309.689 277.041 315.152 281.68C321.733 287.274 328.198 292.957 334.52 298.844C337.974 302.06 341.474 305.205 345.043 308.293C347.386 310.336 349.693 312.417 352 314.5C360.174 321.867 368.527 328.981 377 336C377.428 335.632 377.857 335.264 378.298 334.885C381.289 332.32 384.282 329.758 387.289 327.211C393.829 321.659 400.241 316.003 406.519 310.156C409.974 306.94 413.474 303.795 417.043 300.707C419.386 298.664 421.693 296.583 424 294.5C427.617 291.236 431.264 288.012 434.938 284.812C437.31 282.728 439.656 280.616 442 278.5C445.617 275.236 449.264 272.012 452.938 268.812C455.31 266.728 457.656 264.616 460 262.5C463.617 259.236 467.264 256.012 470.938 252.812C473.31 250.728 475.656 248.616 478 246.5C483.323 241.701 488.689 236.959 494.152 232.32C500.733 226.726 507.198 221.043 513.52 215.156C516.974 211.94 520.474 208.795 524.043 205.707C526.386 203.664 528.693 201.583 531 199.5C534.617 196.236 538.264 193.012 541.938 189.812C544.31 187.728 546.656 185.616 549 183.5C552.617 180.236 556.264 177.012 559.938 173.812C562.31 171.728 564.656 169.616 567 167.5C570.617 164.236 574.264 161.012 577.938 157.812C580.31 155.728 582.656 153.616 585 151.5C590.323 146.701 595.689 141.959 601.152 137.32C607.733 131.726 614.198 126.043 620.52 120.156C623.974 116.94 627.474 113.795 631.043 110.707C633.386 108.664 635.693 106.583 638 104.5C641.617 101.236 645.264 98.0121 648.938 94.8125C651.31 92.7279 653.656 90.6157 656 88.5C659.617 85.2361 663.264 82.0121 666.938 78.8125C669.31 76.7279 671.656 74.6157 674 72.5C677.617 69.2361 681.264 66.0121 684.938 62.8125C687.31 60.7279 689.656 58.6157 692 56.5C697.323 51.7009 702.689 46.9592 708.152 42.3203C714.733 36.7256 721.198 31.0426 727.52 25.1562C730.971 21.9428 734.468 18.7991 738.035 15.7148C740.424 13.6297 742.774 11.5027 745.125 9.375C748.685 6.16151 752.284 3.03115 756 0Z" fill="#0A2549"/>
<path d="M847 0C847.66 0 848.32 0 849 0C857.701 19.5195 866.358 39.0579 874.938 58.6308C880.769 71.9308 886.626 85.2192 892.5 98.5C898.706 112.533 904.897 126.574 911.062 140.625C911.617 141.889 911.617 141.889 912.183 143.179C915.161 149.966 918.138 156.754 921.115 163.542C923.722 169.486 926.329 175.431 928.938 181.375C929.307 182.218 929.677 183.06 930.058 183.928C936.248 198.032 942.468 212.122 948.697 226.207C954.86 240.142 960.996 254.088 967.115 268.042C972.888 281.205 978.686 294.356 984.5 307.5C991.062 322.337 997.599 337.185 1004.11 352.042C1009.89 365.205 1015.69 378.356 1021.5 391.5C1028.06 406.337 1034.6 421.185 1041.11 436.042C1046.89 449.205 1052.69 462.355 1058.5 475.5C1064.71 489.533 1070.9 503.574 1077.06 517.625C1077.43 518.468 1077.8 519.31 1078.18 520.179C1081.16 526.966 1084.14 533.754 1087.11 540.542C1089.72 546.486 1092.33 552.431 1094.94 558.375C1095.31 559.218 1095.68 560.06 1096.06 560.928C1102.25 575.032 1108.47 589.122 1114.7 603.207C1120.86 617.142 1127 631.088 1133.11 645.042C1138.89 658.205 1144.69 671.356 1150.5 684.5C1157.06 699.337 1163.6 714.185 1170.11 729.042C1175.89 742.205 1181.69 755.355 1187.5 768.5C1195.65 786.935 1203.78 805.38 1211.86 823.847C1213.92 828.542 1215.99 833.231 1218.07 837.914C1219.32 840.741 1220.57 843.571 1221.82 846.402C1222.39 847.704 1222.97 849.004 1223.55 850.302C1224.34 852.059 1225.11 853.823 1225.89 855.586C1226.32 856.566 1226.76 857.546 1227.21 858.556C1228 861 1228 861 1227 864C1226.15 863.215 1225.31 862.43 1224.44 861.621C1219 856.583 1213.56 851.558 1207.96 846.707C1205.61 844.664 1203.31 842.583 1201 840.5C1197.38 837.233 1193.73 834.005 1190.05 830.805C1187.74 828.77 1185.46 826.698 1183.19 824.625C1179.81 821.571 1176.37 818.656 1172.81 815.812C1166.75 810.91 1161.12 805.577 1155.45 800.23C1152.32 797.29 1149.14 794.436 1145.89 791.637C1143.56 789.621 1141.28 787.562 1139 785.5C1133.68 780.701 1128.31 775.959 1122.85 771.32C1116.27 765.726 1109.8 760.043 1103.48 754.156C1100.03 750.94 1096.53 747.795 1092.96 744.707C1090.61 742.664 1088.31 740.583 1086 738.5C1080.68 733.701 1075.31 728.959 1069.85 724.32C1063.27 718.726 1056.8 713.043 1050.48 707.156C1047.03 703.94 1043.53 700.795 1039.96 697.707C1037.61 695.664 1035.31 693.583 1033 691.5C1027.68 686.701 1022.31 681.959 1016.85 677.32C1010.27 671.726 1003.8 666.043 997.48 660.156C994.026 656.94 990.526 653.795 986.957 650.707C984.614 648.664 982.307 646.583 980 644.5C974.677 639.701 969.311 634.959 963.848 630.32C957.267 624.726 950.802 619.043 944.48 613.156C941.026 609.94 937.526 606.795 933.957 603.707C931.614 601.664 929.307 599.583 927 597.5C921.677 592.701 916.311 587.959 910.848 583.32C904.267 577.726 897.802 572.043 891.48 566.156C888.026 562.94 884.526 559.795 880.957 556.707C878.614 554.664 876.307 552.583 874 550.5C869.703 546.624 865.365 542.8 861 539C859.5 537.688 858 536.375 856.5 535.062C855.83 534.476 855.159 533.889 854.469 533.285C853.742 532.649 853.742 532.649 853 532C847.924 533.501 844.893 536.598 841.188 540.188C839.937 541.375 838.686 542.561 837.434 543.746C836.838 544.313 836.242 544.88 835.628 545.464C833.123 547.827 830.528 550.078 827.922 552.328C825.589 554.358 823.295 556.428 821 558.5C817.383 561.764 813.736 564.988 810.062 568.188C807.69 570.272 805.344 572.384 803 574.5C799.383 577.764 795.736 580.988 792.062 584.188C789.69 586.272 787.344 588.384 785 590.5C781.383 593.764 777.736 596.988 774.062 600.188C771.69 602.272 769.344 604.384 767 606.5C763.383 609.764 759.736 612.988 756.062 616.188C753.69 618.272 751.344 620.384 749 622.5C743.677 627.299 738.311 632.041 732.848 636.68C726.267 642.274 719.802 647.957 713.48 653.844C710.026 657.06 706.526 660.205 702.957 663.293C700.614 665.336 698.307 667.417 696 669.5C692.383 672.764 688.736 675.988 685.062 679.188C682.69 681.272 680.344 683.384 678 685.5C674.383 688.764 670.736 691.988 667.062 695.188C664.69 697.272 662.344 699.384 660 701.5C656.383 704.764 652.736 707.988 649.062 711.188C646.69 713.272 644.344 715.384 642 717.5C636.677 722.299 631.311 727.041 625.848 731.68C619.267 737.274 612.802 742.957 606.48 748.844C603.026 752.06 599.526 755.205 595.957 758.293C593.614 760.336 591.307 762.417 589 764.5C585.383 767.764 581.736 770.988 578.062 774.188C575.69 776.272 573.344 778.384 571 780.5C567.383 783.764 563.736 786.988 560.062 790.188C557.69 792.272 555.344 794.384 553 796.5C549.383 799.764 545.736 802.988 542.062 806.188C539.69 808.272 537.344 810.384 535 812.5C529.677 817.299 524.311 822.041 518.848 826.68C512.267 832.274 505.802 837.957 499.48 843.844C496.032 847.055 492.538 850.197 488.973 853.277C485.704 856.132 482.505 859.062 479.297 861.984C477.262 863.77 475.191 865.412 473 867C472.34 866.67 471.68 866.34 471 866C471.222 865.49 471.443 864.981 471.672 864.456C484.603 834.735 484.603 834.735 497.5 805C502.843 792.662 508.201 780.33 513.562 768C514.196 766.542 514.196 766.542 514.843 765.055C518.336 757.023 521.829 748.991 525.323 740.959C528.361 733.973 531.399 726.986 534.438 720C534.861 719.027 535.284 718.054 535.72 717.051C541.16 704.541 546.591 692.027 552.012 679.508C556.789 668.48 561.582 657.459 566.375 646.438C573.758 629.462 581.132 612.482 588.5 595.5C595.723 578.852 602.95 562.205 610.188 545.562C610.795 544.166 610.795 544.166 611.414 542.741C614.276 536.161 617.138 529.58 620 523C623.479 515 626.959 507 630.438 499C630.862 498.025 631.286 497.05 631.723 496.045C636.656 484.7 641.584 473.353 646.5 462C651.843 449.662 657.201 437.33 662.562 425C663.196 423.542 663.196 423.542 663.843 422.055C667.336 414.023 670.829 405.991 674.323 397.959C677.361 390.973 680.399 383.986 683.438 377C683.861 376.027 684.284 375.054 684.72 374.051C689.654 362.704 694.583 351.355 699.5 340C704.843 327.662 710.201 315.33 715.562 303C716.196 301.542 716.196 301.542 716.843 300.055C720.336 292.023 723.829 283.991 727.323 275.959C730.361 268.973 733.399 261.986 736.438 255C736.861 254.027 737.284 253.054 737.72 252.051C742.654 240.704 747.583 229.355 752.5 218C757.843 205.662 763.201 193.33 768.562 181C768.985 180.028 769.408 179.056 769.843 178.055C773.336 170.023 776.829 161.991 780.323 153.959C783.361 146.973 786.399 139.986 789.438 133C789.861 132.027 790.284 131.054 790.72 130.051C796.154 117.554 801.581 105.054 806.994 92.5476C810.225 85.0868 813.465 77.6301 816.711 70.1758C826.881 46.815 837 23.4339 847 0Z" fill="#0A2549"/>
<path d="M2663 11C2696.33 11 2729.66 11 2764 11C2775.7 25.0393 2775.7 25.0393 2780 31.625C2780.5 32.3859 2781 33.1467 2781.52 33.9307C2794.3 53.6394 2804.2 74.8641 2812 97C2812.26 96.2962 2812.52 95.5923 2812.79 94.8672C2817.64 81.8664 2822.47 69.0182 2829.05 56.7871C2830.02 54.9714 2830.94 53.1384 2831.85 51.2969C2839.06 36.985 2848.63 22.3743 2860 11C2893.33 11 2926.66 11 2961 11C2961 122.54 2961 234.08 2961 349C2935.92 349 2910.84 349 2885 349C2884.67 265.51 2884.34 182.02 2884 96C2876.16 106.715 2876.16 106.715 2869.25 117.938C2868.88 118.601 2868.52 119.264 2868.14 119.948C2859.38 136.205 2854.6 153.626 2852.25 171.875C2852.13 172.77 2852.02 173.664 2851.9 174.586C2849.54 195.011 2849.81 215.676 2849.7 236.207C2849.67 240.187 2849.65 244.167 2849.62 248.146C2849.57 255.647 2849.53 263.147 2849.48 270.647C2849.42 280.808 2849.36 290.969 2849.29 301.129C2849.19 317.086 2849.1 333.043 2849 349C2824.25 349 2799.5 349 2774 349C2773.94 331.785 2773.94 331.785 2773.89 314.223C2773.86 306.908 2773.83 299.594 2773.79 292.279C2773.74 280.695 2773.69 269.111 2773.65 257.527C2773.63 249.086 2773.6 240.645 2773.55 232.205C2773.53 227.746 2773.51 223.288 2773.5 218.83C2773.45 186.528 2772.64 154.499 2758 125C2757.69 124.357 2757.37 123.714 2757.05 123.051C2752.52 113.827 2747.34 104.338 2740 97C2739.67 180.16 2739.34 263.32 2739 349C2713.92 349 2688.84 349 2663 349C2663 237.46 2663 125.92 2663 11Z" fill="#0A2549"/>
<path d="M1686 503C1830.96 503 1830.96 503 1852.79 523.723C1861.49 532.675 1866.5 543.217 1869.75 555.188C1869.95 555.904 1870.15 556.62 1870.35 557.359C1873.92 571.417 1874.3 585.859 1874.26 600.275C1874.26 602.034 1874.27 603.792 1874.27 605.55C1874.28 610.271 1874.28 614.992 1874.27 619.713C1874.26 624.687 1874.27 629.661 1874.27 634.635C1874.28 642.984 1874.27 651.332 1874.26 659.68C1874.25 669.29 1874.25 678.899 1874.26 688.509C1874.27 696.805 1874.27 705.101 1874.27 713.397C1874.27 718.332 1874.27 723.267 1874.27 728.202C1874.28 732.844 1874.27 737.487 1874.26 742.13C1874.26 743.819 1874.26 745.508 1874.27 747.197C1874.3 761.442 1873.62 775.802 1869.88 789.625C1869.66 790.41 1869.45 791.195 1869.23 792.004C1864.42 808.657 1854.93 822.451 1839.69 831.215C1794.97 853.912 1722.89 841 1686 841C1686 729.46 1686 617.92 1686 503ZM1762 568C1762 636.64 1762 705.28 1762 776C1778.9 777.449 1778.9 777.449 1793.38 770.812C1796.71 765.037 1797.25 759.024 1797.26 752.462C1797.26 751.747 1797.27 751.033 1797.27 750.297C1797.28 747.926 1797.28 745.556 1797.27 743.186C1797.28 741.477 1797.28 739.768 1797.29 738.059C1797.3 733.433 1797.3 728.807 1797.3 724.181C1797.3 720.311 1797.31 716.442 1797.31 712.573C1797.32 703.441 1797.32 694.31 1797.32 685.178C1797.31 675.773 1797.32 666.369 1797.34 656.965C1797.36 648.875 1797.37 640.786 1797.36 632.696C1797.36 627.872 1797.36 623.047 1797.38 618.222C1797.39 613.683 1797.39 609.144 1797.38 604.605C1797.37 602.945 1797.38 601.285 1797.38 599.625C1797.76 584.817 1797.76 584.817 1791.38 572C1781.99 566.44 1773.25 568 1762 568Z" fill="#0A2549"/>
<path d="M2545 503C2690.36 503 2690.36 503 2711.31 522.688C2733.64 546.446 2733.81 584.173 2733.11 614.804C2732.48 633.266 2729.76 655.425 2716.25 669.25C2714.24 671.076 2712.28 672.479 2710 674C2711.23 684.391 2712.69 694.711 2714.43 705.032C2714.67 706.453 2714.9 707.874 2715.14 709.295C2715.64 712.318 2716.15 715.34 2716.66 718.362C2717.46 723.144 2718.26 727.928 2719.05 732.711C2721.03 744.576 2723.01 756.441 2724.99 768.304C2726.54 777.561 2728.09 786.818 2729.62 796.076C2730.41 800.829 2731.21 805.581 2732.01 810.332C2732.5 813.283 2732.99 816.234 2733.48 819.186C2733.71 820.551 2733.94 821.916 2734.17 823.281C2734.49 825.147 2734.79 827.014 2735.1 828.881C2735.36 830.446 2735.36 830.446 2735.63 832.042C2736 835 2736 835 2736 841C2709.93 841 2683.86 841 2657 841C2651.55 799.158 2651.55 799.158 2649.82 785.844C2649.71 784.966 2649.6 784.089 2649.48 783.185C2647.12 765.001 2644.79 746.815 2642.47 728.625C2642.07 725.502 2641.68 722.379 2641.28 719.257C2640.81 715.589 2640.34 711.92 2639.88 708.252C2639.62 706.272 2639.37 704.292 2639.12 702.312C2638.97 701.136 2638.82 699.961 2638.67 698.75C2638.54 697.73 2638.41 696.709 2638.27 695.658C2638 693 2638 693 2638 689C2632.39 689 2626.78 689 2621 689C2621 739.16 2621 789.32 2621 841C2595.92 841 2570.84 841 2545 841C2545 729.46 2545 617.92 2545 503ZM2618 563C2618 585.44 2618 607.88 2618 631C2637.24 632.118 2637.24 632.118 2653 624.5C2658.5 616.303 2658.29 606.36 2658.38 596.875C2658.39 595.862 2658.4 594.849 2658.42 593.805C2658.36 584.765 2656.94 576.128 2651 569C2641.67 561.004 2629.7 563 2618 563Z" fill="#0A2549"/>
<path d="M2093 11C2238.36 11 2238.36 11 2259.31 30.6875C2281.64 54.4463 2281.81 92.1733 2281.11 122.804C2280.48 141.266 2277.76 163.425 2264.25 177.25C2262.24 179.076 2260.28 180.479 2258 182C2259.23 192.391 2260.69 202.711 2262.43 213.032C2262.67 214.453 2262.9 215.874 2263.14 217.295C2263.64 220.318 2264.15 223.34 2264.66 226.362C2265.46 231.144 2266.26 235.928 2267.05 240.711C2269.03 252.576 2271.01 264.441 2272.99 276.304C2274.54 285.561 2276.09 294.818 2277.62 304.076C2278.41 308.829 2279.21 313.581 2280.01 318.332C2280.5 321.283 2280.99 324.234 2281.48 327.186C2281.71 328.551 2281.94 329.916 2282.17 331.281C2282.49 333.147 2282.79 335.014 2283.1 336.881C2283.36 338.446 2283.36 338.446 2283.63 340.042C2284 343 2284 343 2284 349C2257.93 349 2231.86 349 2205 349C2199.55 307.158 2199.55 307.158 2197.82 293.844C2197.71 292.966 2197.6 292.089 2197.48 291.185C2195.12 273.001 2192.79 254.815 2190.47 236.625C2190.07 233.502 2189.68 230.379 2189.28 227.257C2188.81 223.589 2188.34 219.92 2187.88 216.252C2187.62 214.272 2187.37 212.292 2187.12 210.312C2186.97 209.136 2186.82 207.961 2186.67 206.75C2186.54 205.73 2186.41 204.709 2186.27 203.658C2186 201 2186 201 2186 197C2180.39 197 2174.78 197 2169 197C2169 247.16 2169 297.32 2169 349C2143.92 349 2118.84 349 2093 349C2093 237.46 2093 125.92 2093 11ZM2166 71C2166 93.44 2166 115.88 2166 139C2185.24 140.118 2185.24 140.118 2201 132.5C2206.5 124.303 2206.29 114.36 2206.38 104.875C2206.39 103.862 2206.4 102.849 2206.42 101.805C2206.36 92.765 2204.94 84.1278 2199 77C2189.67 69.0037 2177.7 71 2166 71Z" fill="#0A2549"/>
<path d="M3371.94 498.626C3373.12 498.633 3373.12 498.633 3374.32 498.64C3396.21 498.792 3417.99 501.392 3436 515.001C3436.78 515.572 3437.55 516.143 3438.35 516.731C3456.51 531.365 3462.04 556.03 3465 578.001C3465.25 579.81 3465.25 579.81 3465.51 581.655C3466.3 588.838 3466.16 596.063 3466.16 603.279C3466.17 604.919 3466.17 606.56 3466.18 608.2C3466.19 612.639 3466.2 617.078 3466.2 621.517C3466.2 624.301 3466.21 627.085 3466.21 629.869C3466.23 638.611 3466.24 647.352 3466.24 656.094C3466.24 666.126 3466.26 676.157 3466.29 686.189C3466.31 693.98 3466.32 701.771 3466.32 709.561C3466.32 714.197 3466.33 718.832 3466.35 723.467C3466.62 796.557 3466.62 796.557 3444 822.001C3443.52 822.577 3443.03 823.153 3442.53 823.747C3427.18 840.645 3402.73 844.97 3381.02 846.165C3354.32 847.202 3324.53 844.354 3303.69 825.876C3291.16 814.112 3285.32 798.054 3281.75 781.626C3281.6 780.933 3281.45 780.24 3281.29 779.526C3278.51 765.57 3277.7 751.474 3277.73 737.284C3277.72 735.704 3277.72 734.125 3277.71 732.545C3277.7 728.313 3277.7 724.082 3277.7 719.85C3277.7 716.287 3277.7 712.725 3277.69 709.162C3277.68 700.739 3277.68 692.316 3277.69 683.893C3277.69 675.274 3277.68 666.654 3277.66 658.035C3277.64 650.573 3277.63 643.111 3277.64 635.648C3277.64 631.219 3277.64 626.79 3277.62 622.36C3277.41 548.361 3277.41 548.361 3300 523.001C3300.55 522.351 3301.09 521.702 3301.66 521.032C3318.98 501.949 3347.58 498.368 3371.94 498.626ZM3359 567.001C3352.06 576.715 3353.71 590.894 3353.74 602.351C3353.74 604.057 3353.74 605.764 3353.73 607.47C3353.72 612.067 3353.73 616.664 3353.73 621.261C3353.74 626.094 3353.73 630.926 3353.73 635.758C3353.73 643.869 3353.73 651.98 3353.74 660.09C3353.75 669.442 3353.75 678.794 3353.74 688.145C3353.73 696.204 3353.73 704.262 3353.73 712.32C3353.73 717.12 3353.73 721.92 3353.73 726.72C3353.72 731.234 3353.73 735.747 3353.74 740.261C3353.74 741.909 3353.74 743.557 3353.74 745.205C3353.23 761.861 3353.23 761.861 3359 777.001C3363.97 781.35 3368.69 781.285 3375.05 781.216C3379.95 780.859 3382.66 779.194 3386.25 776.001C3391.59 766.842 3390.29 754.782 3390.26 744.495C3390.26 742.748 3390.27 741 3390.27 739.253C3390.28 734.536 3390.28 729.819 3390.27 725.103C3390.26 720.15 3390.27 715.197 3390.27 710.244C3390.28 701.929 3390.27 693.613 3390.26 685.298C3390.25 675.706 3390.25 666.113 3390.27 656.521C3390.27 648.262 3390.28 640.004 3390.27 631.745C3390.27 626.823 3390.27 621.9 3390.27 616.978C3390.28 612.348 3390.28 607.719 3390.26 603.09C3390.26 601.398 3390.26 599.706 3390.27 598.014C3391 582.449 3391 582.449 3385.69 568.438C3380.52 563.752 3375.69 563.618 3368.95 563.751C3364.87 564.096 3362.49 564.848 3359 567.001Z" fill="#0A2549"/>
<path d="M2409.94 498.626C2411.12 498.633 2411.12 498.633 2412.32 498.64C2434.21 498.792 2455.99 501.392 2474 515.001C2474.78 515.572 2475.55 516.143 2476.35 516.731C2494.51 531.365 2500.04 556.03 2503 578.001C2503.25 579.81 2503.25 579.81 2503.51 581.655C2504.3 588.838 2504.16 596.063 2504.16 603.279C2504.17 604.919 2504.17 606.56 2504.18 608.2C2504.19 612.639 2504.2 617.078 2504.2 621.517C2504.2 624.301 2504.21 627.085 2504.21 629.869C2504.23 638.611 2504.24 647.352 2504.24 656.094C2504.24 666.126 2504.26 676.157 2504.29 686.189C2504.31 693.98 2504.32 701.771 2504.32 709.561C2504.32 714.197 2504.33 718.832 2504.35 723.467C2504.62 796.557 2504.62 796.557 2482 822.001C2481.52 822.577 2481.03 823.153 2480.53 823.747C2465.18 840.645 2440.73 844.97 2419.02 846.165C2392.32 847.202 2362.53 844.354 2341.69 825.876C2329.16 814.112 2323.32 798.054 2319.75 781.626C2319.6 780.933 2319.45 780.24 2319.29 779.526C2316.51 765.57 2315.7 751.474 2315.73 737.284C2315.72 735.704 2315.72 734.125 2315.71 732.545C2315.7 728.313 2315.7 724.082 2315.7 719.85C2315.7 716.287 2315.7 712.725 2315.69 709.162C2315.68 700.739 2315.68 692.316 2315.69 683.893C2315.69 675.274 2315.68 666.654 2315.66 658.035C2315.64 650.573 2315.63 643.111 2315.64 635.648C2315.64 631.219 2315.64 626.79 2315.62 622.36C2315.41 548.361 2315.41 548.361 2338 523.001C2338.55 522.351 2339.09 521.702 2339.66 521.032C2356.98 501.949 2385.58 498.368 2409.94 498.626ZM2397 567.001C2390.06 576.715 2391.71 590.894 2391.74 602.351C2391.74 604.057 2391.74 605.764 2391.73 607.47C2391.72 612.067 2391.73 616.664 2391.73 621.261C2391.74 626.094 2391.73 630.926 2391.73 635.758C2391.73 643.869 2391.73 651.98 2391.74 660.09C2391.75 669.442 2391.75 678.794 2391.74 688.145C2391.73 696.204 2391.73 704.262 2391.73 712.32C2391.73 717.12 2391.73 721.92 2391.73 726.72C2391.72 731.234 2391.73 735.747 2391.74 740.261C2391.74 741.909 2391.74 743.557 2391.74 745.205C2391.23 761.861 2391.23 761.861 2397 777.001C2401.97 781.35 2406.69 781.285 2413.05 781.216C2417.95 780.859 2420.66 779.194 2424.25 776.001C2429.59 766.842 2428.29 754.782 2428.26 744.495C2428.26 742.748 2428.27 741 2428.27 739.253C2428.28 734.536 2428.28 729.819 2428.27 725.103C2428.26 720.15 2428.27 715.197 2428.27 710.244C2428.28 701.929 2428.27 693.613 2428.26 685.298C2428.25 675.706 2428.25 666.113 2428.27 656.521C2428.27 648.262 2428.28 640.004 2428.27 631.745C2428.27 626.823 2428.27 621.9 2428.27 616.978C2428.28 612.348 2428.28 607.719 2428.26 603.09C2428.26 601.398 2428.26 599.706 2428.27 598.014C2429 582.449 2429 582.449 2423.69 568.438C2418.52 563.752 2413.69 563.618 2406.95 563.751C2402.87 564.096 2400.49 564.848 2397 567.001Z" fill="#0A2549"/>
<path d="M3095.94 6.62589C3097.12 6.63287 3097.12 6.63287 3098.32 6.63999C3120.21 6.79167 3141.99 9.39243 3160 23.0009C3160.78 23.5719 3161.55 24.143 3162.35 24.7314C3180.51 39.3653 3186.04 64.0299 3189 86.0009C3189.25 87.8096 3189.25 87.8096 3189.51 89.6547C3190.3 96.838 3190.16 104.063 3190.16 111.279C3190.17 112.919 3190.17 114.56 3190.18 116.2C3190.19 120.639 3190.2 125.078 3190.2 129.517C3190.2 132.301 3190.21 135.085 3190.21 137.869C3190.23 146.611 3190.24 155.352 3190.24 164.094C3190.24 174.126 3190.26 184.157 3190.29 194.189C3190.31 201.98 3190.32 209.771 3190.32 217.561C3190.32 222.197 3190.33 226.832 3190.35 231.467C3190.62 304.557 3190.62 304.557 3168 330.001C3167.52 330.577 3167.03 331.153 3166.53 331.747C3151.18 348.645 3126.73 352.97 3105.02 354.165C3078.32 355.202 3048.53 352.354 3027.69 333.876C3015.16 322.112 3009.32 306.054 3005.75 289.626C3005.6 288.933 3005.45 288.24 3005.29 287.526C3002.51 273.57 3001.7 259.474 3001.73 245.284C3001.72 243.704 3001.72 242.125 3001.71 240.545C3001.7 236.313 3001.7 232.082 3001.7 227.85C3001.7 224.287 3001.7 220.725 3001.69 217.162C3001.68 208.739 3001.68 200.316 3001.69 191.893C3001.69 183.274 3001.68 174.654 3001.66 166.035C3001.64 158.573 3001.63 151.111 3001.64 143.648C3001.64 139.219 3001.64 134.79 3001.62 130.36C3001.41 56.3612 3001.41 56.3612 3024 31.0009C3024.55 30.3512 3025.09 29.7015 3025.66 29.0321C3042.98 9.94884 3071.58 6.36766 3095.94 6.62589ZM3083 75.0009C3076.06 84.7152 3077.71 98.8943 3077.74 110.351C3077.74 112.057 3077.74 113.764 3077.73 115.47C3077.72 120.067 3077.73 124.664 3077.73 129.261C3077.74 134.094 3077.73 138.926 3077.73 143.758C3077.73 151.869 3077.73 159.98 3077.74 168.09C3077.75 177.442 3077.75 186.794 3077.74 196.145C3077.73 204.204 3077.73 212.262 3077.73 220.32C3077.73 225.12 3077.73 229.92 3077.73 234.72C3077.72 239.234 3077.73 243.747 3077.74 248.261C3077.74 249.909 3077.74 251.557 3077.74 253.205C3077.23 269.861 3077.23 269.861 3083 285.001C3087.97 289.35 3092.69 289.285 3099.05 289.216C3103.95 288.859 3106.66 287.194 3110.25 284.001C3115.59 274.842 3114.29 262.782 3114.26 252.495C3114.26 250.748 3114.27 249 3114.27 247.253C3114.28 242.536 3114.28 237.819 3114.27 233.103C3114.26 228.15 3114.27 223.197 3114.27 218.244C3114.28 209.929 3114.27 201.613 3114.26 193.298C3114.25 183.706 3114.25 174.113 3114.27 164.521C3114.27 156.262 3114.28 148.004 3114.27 139.745C3114.27 134.823 3114.27 129.9 3114.27 124.978C3114.28 120.348 3114.28 115.719 3114.26 111.09C3114.26 109.398 3114.26 107.706 3114.27 106.014C3115 90.4486 3115 90.4486 3109.69 76.4384C3104.52 71.7524 3099.69 71.6183 3092.95 71.7509C3088.87 72.0964 3086.49 72.8479 3083 75.0009Z" fill="#0A2549"/>
<path d="M1863 11C1887.75 11 1912.5 11 1938 11C1938.03 22.5837 1938.03 22.5837 1938.06 34.4014C1938.12 59.137 1938.2 83.8725 1938.28 108.608C1938.29 112.453 1938.3 116.298 1938.32 120.143C1938.32 120.909 1938.32 121.674 1938.32 122.463C1938.36 134.841 1938.4 147.22 1938.43 159.598C1938.46 172.309 1938.5 185.019 1938.54 197.729C1938.57 205.566 1938.59 213.403 1938.61 221.241C1938.62 227.26 1938.64 233.279 1938.67 239.298C1938.67 241.76 1938.68 244.222 1938.68 246.684C1938.69 250.056 1938.7 253.428 1938.72 256.8C1938.72 258.248 1938.72 258.248 1938.71 259.725C1938.78 268.409 1938.89 277.676 1944 285C1949.4 289.017 1955.56 288.613 1962 288C1965.03 287.409 1966.32 286.767 1969 285C1973.24 277.5 1973.15 269.744 1973.16 261.37C1973.16 260.299 1973.17 259.228 1973.17 258.125C1973.19 254.536 1973.2 250.948 1973.2 247.36C1973.21 244.788 1973.22 242.215 1973.23 239.643C1973.26 234.105 1973.27 228.567 1973.29 223.029C1973.31 215.023 1973.34 207.016 1973.37 199.009C1973.42 186.018 1973.46 173.027 1973.5 160.036C1973.54 147.418 1973.58 134.8 1973.63 122.182C1973.63 121.404 1973.63 120.626 1973.63 119.824C1973.65 115.921 1973.66 112.018 1973.68 108.114C1973.79 75.7429 1973.9 43.3715 1974 11C1999.08 11 2024.16 11 2050 11C2050.04 42.1089 2050.08 73.2177 2050.1 104.327C2050.1 108.01 2050.11 111.693 2050.11 115.376C2050.11 116.109 2050.11 116.843 2050.11 117.598C2050.12 129.427 2050.13 141.256 2050.15 153.086C2050.17 165.248 2050.18 177.411 2050.19 189.573C2050.19 196.394 2050.19 203.215 2050.21 210.036C2050.22 216.472 2050.23 222.908 2050.22 229.344C2050.23 231.691 2050.23 234.038 2050.24 236.385C2050.34 268.789 2049.17 307.762 2025.39 332.723C2005.33 351.799 1976.48 354.697 1950.08 354.25C1926.1 353.488 1903.44 348.324 1886 331C1885.37 330.42 1884.75 329.84 1884.1 329.242C1863.74 308.696 1862.61 270.83 1862.63 244.022C1862.64 241.729 1862.65 239.436 1862.66 237.143C1862.66 234.656 1862.66 232.17 1862.66 229.684C1862.66 224.387 1862.66 219.09 1862.68 213.793C1862.71 206.135 1862.71 198.477 1862.72 190.819C1862.72 178.387 1862.74 165.955 1862.77 153.523C1862.8 141.465 1862.82 129.406 1862.83 117.348C1862.83 116.601 1862.84 115.855 1862.84 115.086C1862.84 111.34 1862.84 107.595 1862.85 103.849C1862.88 72.8995 1862.93 41.9498 1863 11Z" fill="#0A2549"/>
<path d="M2598.5 25.3749C2614.36 40.8147 2620.3 63.7493 2621.09 85.3905C2621.11 87.7636 2621.11 90.1345 2621.1 92.5077C2621.1 93.2643 2621.1 94.0209 2621.1 94.8004C2621.09 97.5753 2621.08 100.35 2621.06 103.125C2621.04 109.354 2621.02 115.582 2621 122C2598.23 122 2575.46 122 2552 122C2551.67 113.09 2551.34 104.18 2551 94.9999C2548.71 83.2824 2548.71 83.2824 2541.5 75.1874C2535.88 72.516 2530.14 72.475 2524 72.9999C2520.58 74.2898 2520.58 74.2898 2518 75.9999C2516.52 76.4949 2516.52 76.4949 2515 76.9999C2513.82 79.3761 2513.82 79.3761 2513 81.9999C2512.51 83.4849 2512.51 83.4849 2512 84.9999C2511.24 93.9855 2514.35 99.0938 2519.81 106.062C2528.37 116.193 2537.85 125.622 2548.27 133.832C2551.37 136.293 2554.37 138.859 2557.38 141.437C2561.7 145.127 2566.1 148.68 2570.63 152.125C2597.11 172.34 2616.05 194.303 2622.25 228C2626.29 259.166 2625.82 296.045 2606.56 322.5C2605.07 324.356 2603.55 326.192 2602 328C2601.38 328.737 2600.75 329.475 2600.11 330.234C2584.24 347.467 2559.82 353.036 2537.33 354.13C2510.13 355.071 2480.9 351.853 2459.53 333.402C2440.35 315.197 2434.96 288.451 2434 263C2433.84 254.543 2433.91 246.083 2433.94 237.625C2433.97 225.931 2433.97 225.931 2434 214C2459.41 214 2484.82 214 2511 214C2511.31 238.687 2511.31 238.687 2511.39 246.397C2510.9 266.433 2510.9 266.433 2519 284C2523.35 287.935 2526.92 288.643 2532.6 288.379C2537.71 287.573 2540.2 285.04 2543.25 281.062C2548.85 269.953 2547.53 256.171 2543.96 244.633C2539.67 233.731 2533.01 225.421 2525 217C2524.2 216.162 2523.41 215.324 2522.59 214.461C2517.58 209.324 2512.33 204.702 2506.73 200.223C2503.24 197.378 2499.91 194.375 2496.58 191.336C2494.51 189.456 2492.4 187.622 2490.28 185.793C2477.67 174.768 2465.66 162.73 2456 149C2455.41 148.168 2455.41 148.168 2454.81 147.32C2438.27 123.697 2431.36 98.8266 2436.13 70.0624C2439.7 51.3494 2449.23 34.5588 2464.63 23.035C2500.27 -0.643223 2564.53 -3.53883 2598.5 25.3749Z" fill="#0A2549"/>
<path d="M3060 503C3084.75 503 3109.5 503 3135 503C3135.06 511.487 3135.12 519.974 3135.19 528.719C3135.23 534.886 3135.28 541.054 3135.32 547.222C3135.38 555.149 3135.44 563.077 3135.5 571.004C3135.75 610.49 3135.75 610.49 3136.49 649.969C3136.52 651.132 3136.52 651.132 3136.55 652.318C3137.59 692.879 3140.59 733.114 3153 772C3158.73 757.552 3161.88 742.133 3164.25 726.812C3164.4 725.843 3164.55 724.873 3164.71 723.874C3167.15 707.144 3168.36 690.248 3169.09 673.367C3169.13 672.428 3169.17 671.489 3169.21 670.522C3170.51 640.221 3170.45 609.875 3170.59 579.552C3170.64 569.595 3170.7 559.639 3170.76 549.683C3170.85 534.122 3170.92 518.561 3171 503C3195.75 503 3220.5 503 3246 503C3246.08 536.116 3246.08 536.116 3246.1 550.248C3246.11 559.915 3246.12 569.582 3246.15 579.249C3246.35 649.703 3246.35 649.703 3244 678C3243.92 678.993 3243.84 679.986 3243.76 681.008C3243.31 686.29 3242.77 691.551 3242.13 696.812C3241.95 698.31 3241.78 699.807 3241.6 701.305C3235.89 749.301 3223.07 795.844 3197 837C3196.46 838.031 3196.46 838.031 3195.91 839.083C3193.07 841.938 3190.09 841.637 3186.28 841.676C3185.49 841.699 3184.71 841.722 3183.9 841.746C3181.29 841.815 3178.69 841.852 3176.09 841.883C3174.75 841.904 3174.75 841.904 3173.39 841.925C3168.67 841.996 3163.95 842.043 3159.24 842.071C3154.37 842.104 3149.52 842.221 3144.66 842.357C3140.91 842.447 3137.17 842.474 3133.42 842.484C3131.63 842.5 3129.84 842.539 3128.05 842.602C3114.45 843.053 3114.45 843.053 3110.38 839.642C3107.11 835.827 3105.07 831.544 3103 827C3101.97 825.152 3100.92 823.31 3099.85 821.48C3074.08 773.239 3064.27 720.169 3061 666C3060.96 665.355 3060.92 664.71 3060.88 664.045C3059.85 647.435 3059.87 630.83 3059.9 614.197C3059.91 610.273 3059.91 606.349 3059.91 602.426C3059.91 595.032 3059.92 587.637 3059.93 580.243C3059.94 570.226 3059.95 560.209 3059.95 550.192C3059.96 534.461 3059.98 518.731 3060 503Z" fill="#0A2549"/>
<path d="M2107 503C2253.83 503 2253.83 503 2274.11 522.816C2296.23 548.411 2297.06 589.028 2294.78 621.072C2293.21 637.239 2289.9 652.78 2280 666C2279.36 666.852 2278.73 667.704 2278.07 668.582C2265.53 683.223 2243.77 686.63 2226 689C2211.81 689 2197.62 689 2183 689C2183 739.16 2183 789.32 2183 841C2157.92 841 2132.84 841 2107 841C2107 729.46 2107 617.92 2107 503ZM2180 563C2180 585.44 2180 607.88 2180 631C2198.71 632.244 2198.71 632.244 2214.5 624.75C2219.39 615.782 2220.2 607.4 2220.25 597.312C2220.27 596.274 2220.29 595.236 2220.31 594.166C2220.36 584.95 2219.07 576.281 2213 569C2203.67 561.004 2191.7 563 2180 563Z" fill="#0A2549"/>
<path d="M1915 503C1965.49 503 2015.98 503 2068 503C2068 524.45 2068 545.9 2068 568C2042.59 568 2017.18 568 1991 568C1991 586.81 1991 605.62 1991 625C2015.42 625 2039.84 625 2065 625C2065 646.12 2065 667.24 2065 689C2040.58 689 2016.16 689 1991 689C1991 717.71 1991 746.42 1991 776C2017.73 776 2044.46 776 2072 776C2072 797.45 2072 818.9 2072 841C2020.19 841 1968.38 841 1915 841C1915 729.46 1915 617.92 1915 503Z" fill="#0A2549"/>
<path d="M2755 503C2808.79 503 2862.58 503 2918 503C2918 523.79 2918 544.58 2918 566C2903.48 566 2888.96 566 2874 566C2874 656.75 2874 747.5 2874 841C2849.25 841 2824.5 841 2799 841C2799 750.25 2799 659.5 2799 566C2784.48 566 2769.96 566 2755 566C2755 545.21 2755 524.42 2755 503Z" fill="#0A2549"/>
<path d="M1671 11C1724.79 11 1778.58 11 1834 11C1834 31.79 1834 52.58 1834 74C1819.48 74 1804.96 74 1790 74C1790 164.75 1790 255.5 1790 349C1765.25 349 1740.5 349 1715 349C1715 258.25 1715 167.5 1715 74C1700.48 74 1685.96 74 1671 74C1671 53.21 1671 32.42 1671 11Z" fill="#0A2549"/>
<path d="M2947 503C2972.08 503 2997.16 503 3023 503C3023 614.54 3023 726.08 3023 841C2997.92 841 2972.84 841 2947 841C2947 729.46 2947 617.92 2947 503Z" fill="#0A2549"/>
<path d="M2318 11C2343.08 11 2368.16 11 2394 11C2394 122.54 2394 234.08 2394 349C2368.92 349 2343.84 349 2318 349C2318 237.46 2318 125.92 2318 11Z" fill="#0A2549"/>
</svg>
