<svg width="3722" height="1715" viewBox="0 0 3722 1715" fill="none" xmlns="http://www.w3.org/2000/svg">
<circle cx="857.5" cy="857.5" r="857.5" fill="#F2F2F2"/>
<circle cx="857.5" cy="857.5" r="857.5" stroke="black"/>
<mask id="path-2-inside-1_1842_101" fill="white">
<path d="M1102 425C1102.66 425 1103.32 425 1104 425C1113.36 446.155 1122.71 467.314 1132 488.5C1138.14 502.51 1144.31 516.509 1150.5 530.5C1157.06 545.337 1163.6 560.185 1170.11 575.042C1175.89 588.205 1181.69 601.355 1187.5 614.5C1193.71 628.533 1199.9 642.574 1206.06 656.625C1206.62 657.889 1206.62 657.889 1207.18 659.179C1210.16 665.966 1213.14 672.754 1216.11 679.542C1218.72 685.486 1221.33 691.431 1223.94 697.375C1224.31 698.218 1224.68 699.06 1225.06 699.928C1231.25 714.032 1237.47 728.122 1243.7 742.207C1249.86 756.142 1256 770.088 1262.11 784.042C1267.89 797.205 1273.69 810.356 1279.5 823.5C1286.06 838.337 1292.6 853.185 1299.11 868.042C1304.89 881.205 1310.69 894.356 1316.5 907.5C1323.06 922.337 1329.6 937.185 1336.11 952.042C1341.89 965.205 1347.69 978.355 1353.5 991.5C1359.71 1005.53 1365.9 1019.57 1372.06 1033.62C1372.43 1034.47 1372.8 1035.31 1373.18 1036.18C1376.16 1042.97 1379.14 1049.75 1382.11 1056.54C1384.72 1062.49 1387.33 1068.43 1389.94 1074.38C1390.31 1075.22 1390.68 1076.06 1391.06 1076.93C1397.25 1091.03 1403.47 1105.12 1409.7 1119.21C1415.86 1133.14 1422 1147.09 1428.11 1161.04C1433.89 1174.2 1439.69 1187.36 1445.5 1200.5C1454.4 1220.62 1463.27 1240.75 1472.08 1260.9C1472.94 1262.86 1473.79 1264.81 1474.65 1266.77C1475.98 1269.8 1477.31 1272.84 1478.62 1275.88C1479.17 1277.1 1479.17 1277.1 1479.72 1278.36C1482 1283.65 1482 1283.65 1482 1287C1481.3 1286.36 1480.6 1285.72 1479.88 1285.06C1473.28 1279.05 1466.65 1273.1 1459.85 1267.32C1453.27 1261.73 1446.8 1256.04 1440.48 1250.16C1437.03 1246.94 1433.53 1243.79 1429.96 1240.71C1427.61 1238.66 1425.31 1236.58 1423 1234.5C1417.68 1229.7 1412.31 1224.96 1406.85 1220.32C1400.27 1214.73 1393.8 1209.04 1387.48 1203.16C1384.03 1199.94 1380.53 1196.79 1376.96 1193.71C1374.61 1191.66 1372.31 1189.58 1370 1187.5C1364.68 1182.7 1359.31 1177.96 1353.85 1173.32C1347.27 1167.73 1340.8 1162.04 1334.48 1156.16C1331.03 1152.94 1327.53 1149.79 1323.96 1146.71C1321.61 1144.66 1319.31 1142.58 1317 1140.5C1311.68 1135.7 1306.31 1130.96 1300.85 1126.32C1294.27 1120.73 1287.8 1115.04 1281.48 1109.16C1278.03 1105.94 1274.53 1102.79 1270.96 1099.71C1268.61 1097.66 1266.31 1095.58 1264 1093.5C1258.68 1088.7 1253.31 1083.96 1247.85 1079.32C1241.27 1073.73 1234.8 1068.04 1228.48 1062.16C1225.03 1058.94 1221.53 1055.79 1217.96 1052.71C1215.61 1050.66 1213.31 1048.58 1211 1046.5C1207.38 1043.23 1203.73 1040 1200.05 1036.8C1197.74 1034.77 1195.46 1032.7 1193.19 1030.62C1189.81 1027.57 1186.37 1024.66 1182.81 1021.81C1176.75 1016.91 1171.12 1011.58 1165.45 1006.23C1162.32 1003.29 1159.14 1000.44 1155.89 997.637C1153.56 995.621 1151.28 993.562 1149 991.5C1143.68 986.701 1138.31 981.959 1132.85 977.32C1131.67 976.318 1130.49 975.315 1129.31 974.312C1128.42 973.553 1128.42 973.553 1127.51 972.779C1122.6 968.574 1117.85 964.215 1113.18 959.745C1110.78 957.487 1109.16 956.055 1106 955C1105.3 955.641 1104.6 956.281 1103.88 956.941C1098.97 961.416 1094.04 965.865 1089.03 970.223C1086.67 972.294 1084.33 974.395 1082 976.5C1078.38 979.764 1074.74 982.988 1071.06 986.188C1068.69 988.272 1066.34 990.384 1064 992.5C1060.38 995.767 1056.73 998.995 1053.05 1002.2C1050.74 1004.23 1048.46 1006.3 1046.19 1008.38C1042.81 1011.43 1039.37 1014.34 1035.81 1017.19C1029.75 1022.09 1024.12 1027.42 1018.45 1032.77C1015.32 1035.71 1012.14 1038.56 1008.89 1041.36C1006.56 1043.38 1004.28 1045.44 1002 1047.5C998.383 1050.76 994.736 1053.99 991.062 1057.19C988.69 1059.27 986.344 1061.38 984 1063.5C980.383 1066.76 976.736 1069.99 973.062 1073.19C970.69 1075.27 968.344 1077.38 966 1079.5C962.383 1082.76 958.736 1085.99 955.062 1089.19C952.69 1091.27 950.344 1093.38 948 1095.5C942.677 1100.3 937.311 1105.04 931.848 1109.68C925.267 1115.27 918.802 1120.96 912.48 1126.84C909.026 1130.06 905.526 1133.21 901.957 1136.29C899.614 1138.34 897.307 1140.42 895 1142.5C891.383 1145.76 887.736 1148.99 884.062 1152.19C881.69 1154.27 879.344 1156.38 877 1158.5C873.383 1161.76 869.736 1164.99 866.062 1168.19C863.69 1170.27 861.344 1172.38 859 1174.5C855.383 1177.76 851.736 1180.99 848.062 1184.19C845.69 1186.27 843.344 1188.38 841 1190.5C835.677 1195.3 830.311 1200.04 824.848 1204.68C818.267 1210.27 811.802 1215.96 805.48 1221.84C802.026 1225.06 798.526 1228.21 794.957 1231.29C792.614 1233.34 790.307 1235.42 788 1237.5C784.383 1240.76 780.736 1243.99 777.062 1247.19C774.69 1249.27 772.344 1251.38 770 1253.5C766.383 1256.76 762.736 1259.99 759.062 1263.19C756.69 1265.27 754.344 1267.38 752 1269.5C748.391 1272.76 744.754 1275.97 741.086 1279.16C737.72 1282.13 734.413 1285.16 731.102 1288.18C729 1290 729 1290 727 1291C729.335 1283.54 732.293 1276.47 735.438 1269.31C736.006 1268.01 736.574 1266.71 737.141 1265.41C738.401 1262.52 739.663 1259.63 740.926 1256.75C744.339 1248.94 747.729 1241.13 751.124 1233.32C752.392 1230.4 753.661 1227.48 754.929 1224.56C761.461 1209.55 767.982 1194.52 774.5 1179.5C781.723 1162.85 788.95 1146.2 796.188 1129.56C796.795 1128.17 796.795 1128.17 797.414 1126.74C800.276 1120.16 803.138 1113.58 806 1107C809.479 1099 812.959 1091 816.438 1083C816.862 1082.02 817.286 1081.05 817.723 1080.04C823.161 1067.54 828.592 1055.02 834.012 1042.51C838.789 1031.48 843.582 1020.46 848.375 1009.44C855.758 992.462 863.132 975.482 870.5 958.5C877.723 941.852 884.95 925.205 892.188 908.562C892.795 907.166 892.795 907.166 893.414 905.741C896.276 899.161 899.138 892.58 902 886C905.479 878 908.959 870 912.438 862C912.862 861.025 913.286 860.05 913.723 859.045C918.656 847.7 923.584 836.353 928.5 825C933.843 812.662 939.201 800.33 944.562 788C945.196 786.542 945.196 786.542 945.843 785.055C949.336 777.023 952.829 768.991 956.323 760.959C959.361 753.973 962.399 746.986 965.438 740C965.861 739.027 966.284 738.054 966.72 737.051C971.654 725.704 976.583 714.355 981.5 703C986.843 690.662 992.201 678.33 997.562 666C997.985 665.028 998.408 664.056 998.843 663.055C1002.34 655.023 1005.83 646.991 1009.32 638.959C1012.36 631.973 1015.4 624.986 1018.44 618C1018.86 617.027 1019.28 616.054 1019.72 615.051C1024.65 603.704 1029.58 592.355 1034.5 581C1039.84 568.662 1045.2 556.33 1050.56 544C1050.99 543.028 1051.41 542.056 1051.84 541.055C1055.34 533.023 1058.83 524.991 1062.32 516.959C1068.19 503.475 1074.05 489.99 1079.91 476.504C1080.94 474.131 1081.97 471.758 1083.01 469.385C1089.42 454.626 1095.81 439.855 1102 425Z"/>
</mask>
<path d="M1102 425C1102.66 425 1103.32 425 1104 425C1113.36 446.155 1122.71 467.314 1132 488.5C1138.14 502.51 1144.31 516.509 1150.5 530.5C1157.06 545.337 1163.6 560.185 1170.11 575.042C1175.89 588.205 1181.69 601.355 1187.5 614.5C1193.71 628.533 1199.9 642.574 1206.06 656.625C1206.62 657.889 1206.62 657.889 1207.18 659.179C1210.16 665.966 1213.14 672.754 1216.11 679.542C1218.72 685.486 1221.33 691.431 1223.94 697.375C1224.31 698.218 1224.68 699.06 1225.06 699.928C1231.25 714.032 1237.47 728.122 1243.7 742.207C1249.86 756.142 1256 770.088 1262.11 784.042C1267.89 797.205 1273.69 810.356 1279.5 823.5C1286.06 838.337 1292.6 853.185 1299.11 868.042C1304.89 881.205 1310.69 894.356 1316.5 907.5C1323.06 922.337 1329.6 937.185 1336.11 952.042C1341.89 965.205 1347.69 978.355 1353.5 991.5C1359.71 1005.53 1365.9 1019.57 1372.06 1033.62C1372.43 1034.47 1372.8 1035.31 1373.18 1036.18C1376.16 1042.97 1379.14 1049.75 1382.11 1056.54C1384.72 1062.49 1387.33 1068.43 1389.94 1074.38C1390.31 1075.22 1390.68 1076.06 1391.06 1076.93C1397.25 1091.03 1403.47 1105.12 1409.7 1119.21C1415.86 1133.14 1422 1147.09 1428.11 1161.04C1433.89 1174.2 1439.69 1187.36 1445.5 1200.5C1454.4 1220.62 1463.27 1240.75 1472.08 1260.9C1472.94 1262.86 1473.79 1264.81 1474.65 1266.77C1475.98 1269.8 1477.31 1272.84 1478.62 1275.88C1479.17 1277.1 1479.17 1277.1 1479.72 1278.36C1482 1283.65 1482 1283.65 1482 1287C1481.3 1286.36 1480.6 1285.72 1479.88 1285.06C1473.28 1279.05 1466.65 1273.1 1459.85 1267.32C1453.27 1261.73 1446.8 1256.04 1440.48 1250.16C1437.03 1246.94 1433.53 1243.79 1429.96 1240.71C1427.61 1238.66 1425.31 1236.58 1423 1234.5C1417.68 1229.7 1412.31 1224.96 1406.85 1220.32C1400.27 1214.73 1393.8 1209.04 1387.48 1203.16C1384.03 1199.94 1380.53 1196.79 1376.96 1193.71C1374.61 1191.66 1372.31 1189.58 1370 1187.5C1364.68 1182.7 1359.31 1177.96 1353.85 1173.32C1347.27 1167.73 1340.8 1162.04 1334.48 1156.16C1331.03 1152.94 1327.53 1149.79 1323.96 1146.71C1321.61 1144.66 1319.31 1142.58 1317 1140.5C1311.68 1135.7 1306.31 1130.96 1300.85 1126.32C1294.27 1120.73 1287.8 1115.04 1281.48 1109.16C1278.03 1105.94 1274.53 1102.79 1270.96 1099.71C1268.61 1097.66 1266.31 1095.58 1264 1093.5C1258.68 1088.7 1253.31 1083.96 1247.85 1079.32C1241.27 1073.73 1234.8 1068.04 1228.48 1062.16C1225.03 1058.94 1221.53 1055.79 1217.96 1052.71C1215.61 1050.66 1213.31 1048.58 1211 1046.5C1207.38 1043.23 1203.73 1040 1200.05 1036.8C1197.74 1034.77 1195.46 1032.7 1193.19 1030.62C1189.81 1027.57 1186.37 1024.66 1182.81 1021.81C1176.75 1016.91 1171.12 1011.58 1165.45 1006.23C1162.32 1003.29 1159.14 1000.44 1155.89 997.637C1153.56 995.621 1151.28 993.562 1149 991.5C1143.68 986.701 1138.31 981.959 1132.85 977.32C1131.67 976.318 1130.49 975.315 1129.31 974.312C1128.42 973.553 1128.42 973.553 1127.51 972.779C1122.6 968.574 1117.85 964.215 1113.18 959.745C1110.78 957.487 1109.16 956.055 1106 955C1105.3 955.641 1104.6 956.281 1103.88 956.941C1098.97 961.416 1094.04 965.865 1089.03 970.223C1086.67 972.294 1084.33 974.395 1082 976.5C1078.38 979.764 1074.74 982.988 1071.06 986.188C1068.69 988.272 1066.34 990.384 1064 992.5C1060.38 995.767 1056.73 998.995 1053.05 1002.2C1050.74 1004.23 1048.46 1006.3 1046.19 1008.38C1042.81 1011.43 1039.37 1014.34 1035.81 1017.19C1029.75 1022.09 1024.12 1027.42 1018.45 1032.77C1015.32 1035.71 1012.14 1038.56 1008.89 1041.36C1006.56 1043.38 1004.28 1045.44 1002 1047.5C998.383 1050.76 994.736 1053.99 991.062 1057.19C988.69 1059.27 986.344 1061.38 984 1063.5C980.383 1066.76 976.736 1069.99 973.062 1073.19C970.69 1075.27 968.344 1077.38 966 1079.5C962.383 1082.76 958.736 1085.99 955.062 1089.19C952.69 1091.27 950.344 1093.38 948 1095.5C942.677 1100.3 937.311 1105.04 931.848 1109.68C925.267 1115.27 918.802 1120.96 912.48 1126.84C909.026 1130.06 905.526 1133.21 901.957 1136.29C899.614 1138.34 897.307 1140.42 895 1142.5C891.383 1145.76 887.736 1148.99 884.062 1152.19C881.69 1154.27 879.344 1156.38 877 1158.5C873.383 1161.76 869.736 1164.99 866.062 1168.19C863.69 1170.27 861.344 1172.38 859 1174.5C855.383 1177.76 851.736 1180.99 848.062 1184.19C845.69 1186.27 843.344 1188.38 841 1190.5C835.677 1195.3 830.311 1200.04 824.848 1204.68C818.267 1210.27 811.802 1215.96 805.48 1221.84C802.026 1225.06 798.526 1228.21 794.957 1231.29C792.614 1233.34 790.307 1235.42 788 1237.5C784.383 1240.76 780.736 1243.99 777.062 1247.19C774.69 1249.27 772.344 1251.38 770 1253.5C766.383 1256.76 762.736 1259.99 759.062 1263.19C756.69 1265.27 754.344 1267.38 752 1269.5C748.391 1272.76 744.754 1275.97 741.086 1279.16C737.72 1282.13 734.413 1285.16 731.102 1288.18C729 1290 729 1290 727 1291C729.335 1283.54 732.293 1276.47 735.438 1269.31C736.006 1268.01 736.574 1266.71 737.141 1265.41C738.401 1262.52 739.663 1259.63 740.926 1256.75C744.339 1248.94 747.729 1241.13 751.124 1233.32C752.392 1230.4 753.661 1227.48 754.929 1224.56C761.461 1209.55 767.982 1194.52 774.5 1179.5C781.723 1162.85 788.95 1146.2 796.188 1129.56C796.795 1128.17 796.795 1128.17 797.414 1126.74C800.276 1120.16 803.138 1113.58 806 1107C809.479 1099 812.959 1091 816.438 1083C816.862 1082.02 817.286 1081.05 817.723 1080.04C823.161 1067.54 828.592 1055.02 834.012 1042.51C838.789 1031.48 843.582 1020.46 848.375 1009.44C855.758 992.462 863.132 975.482 870.5 958.5C877.723 941.852 884.95 925.205 892.188 908.562C892.795 907.166 892.795 907.166 893.414 905.741C896.276 899.161 899.138 892.58 902 886C905.479 878 908.959 870 912.438 862C912.862 861.025 913.286 860.05 913.723 859.045C918.656 847.7 923.584 836.353 928.5 825C933.843 812.662 939.201 800.33 944.562 788C945.196 786.542 945.196 786.542 945.843 785.055C949.336 777.023 952.829 768.991 956.323 760.959C959.361 753.973 962.399 746.986 965.438 740C965.861 739.027 966.284 738.054 966.72 737.051C971.654 725.704 976.583 714.355 981.5 703C986.843 690.662 992.201 678.33 997.562 666C997.985 665.028 998.408 664.056 998.843 663.055C1002.34 655.023 1005.83 646.991 1009.32 638.959C1012.36 631.973 1015.4 624.986 1018.44 618C1018.86 617.027 1019.28 616.054 1019.72 615.051C1024.65 603.704 1029.58 592.355 1034.5 581C1039.84 568.662 1045.2 556.33 1050.56 544C1050.99 543.028 1051.41 542.056 1051.84 541.055C1055.34 533.023 1058.83 524.991 1062.32 516.959C1068.19 503.475 1074.05 489.99 1079.91 476.504C1080.94 474.131 1081.97 471.758 1083.01 469.385C1089.42 454.626 1095.81 439.855 1102 425Z" fill="#0A2549" stroke="black" stroke-width="2" mask="url(#path-2-inside-1_1842_101)"/>
<mask id="path-3-inside-2_1842_101" fill="white">
<path d="M1010 426C1010.33 426.66 1010.66 427.32 1011 428C1010.23 430.176 1009.34 432.312 1008.41 434.426C1008.11 435.099 1007.82 435.772 1007.52 436.465C1006.52 438.751 1005.51 441.032 1004.5 443.312C1003.78 444.954 1003.06 446.596 1002.34 448.239C1000.76 451.858 999.176 455.476 997.588 459.093C994.88 465.265 992.196 471.448 989.516 477.633C989.047 478.714 988.579 479.794 988.096 480.908C987.135 483.126 986.174 485.344 985.213 487.563C982.747 493.251 980.278 498.938 977.809 504.625C977.32 505.751 976.83 506.878 976.327 508.038C968.225 526.695 960.113 545.348 952 564C948.521 572 945.041 580 941.562 588C941.138 588.975 940.714 589.95 940.277 590.955C935.344 602.3 930.416 613.647 925.5 625C920.157 637.338 914.799 649.67 909.438 662C909.015 662.972 908.592 663.944 908.157 664.945C904.664 672.977 901.171 681.009 897.677 689.041C894.639 696.027 891.601 703.014 888.562 710C888.139 710.973 887.716 711.946 887.28 712.949C882.346 724.296 877.417 735.645 872.5 747C867.157 759.338 861.799 771.67 856.438 784C856.015 784.972 855.592 785.944 855.157 786.945C851.664 794.977 848.171 803.009 844.677 811.041C841.639 818.027 838.601 825.014 835.562 832C835.139 832.973 834.716 833.946 834.28 834.949C829.346 846.296 824.417 857.645 819.5 869C814.157 881.338 808.799 893.67 803.438 906C803.015 906.972 802.592 907.944 802.157 908.945C798.664 916.977 795.171 925.009 791.677 933.041C788.639 940.027 785.601 947.014 782.562 954C782.139 954.973 781.716 955.946 781.28 956.949C776.346 968.296 771.417 979.645 766.5 991C761.157 1003.34 755.799 1015.67 750.438 1028C750.015 1028.97 749.592 1029.94 749.157 1030.94C745.664 1038.98 742.171 1047.01 738.677 1055.04C735.639 1062.03 732.601 1069.01 729.562 1076C729.139 1076.97 728.716 1077.95 728.28 1078.95C722.84 1091.46 717.409 1103.97 711.988 1116.49C707.211 1127.52 702.418 1138.54 697.625 1149.56C690.242 1166.54 682.868 1183.52 675.5 1200.5C668.006 1217.77 660.507 1235.04 653 1252.31C652.59 1253.25 652.181 1254.2 651.759 1255.17C651.164 1256.54 651.164 1256.54 650.557 1257.93C650.171 1258.82 649.784 1259.71 649.387 1260.63C648.641 1262.34 647.895 1264.05 647.148 1265.76C645.4 1269.77 643.665 1273.78 641.957 1277.8C641.636 1278.55 641.316 1279.3 640.985 1280.07C640.387 1281.47 639.793 1282.87 639.206 1284.28C637.225 1288.89 637.225 1288.89 635 1290C627.076 1273.01 619.519 1255.87 612.001 1238.7C611.609 1237.8 611.217 1236.9 610.812 1235.98C610.417 1235.08 610.021 1234.17 609.614 1233.24C605.267 1223.32 600.884 1213.41 596.5 1203.5C589.937 1188.66 583.401 1173.82 576.885 1158.96C571.112 1145.8 565.314 1132.64 559.5 1119.5C553.294 1105.47 547.103 1091.43 540.938 1077.38C540.568 1076.53 540.198 1075.69 539.817 1074.82C536.839 1068.03 533.862 1061.25 530.885 1054.46C528.278 1048.51 525.671 1042.57 523.062 1036.62C522.693 1035.78 522.323 1034.94 521.942 1034.07C515.752 1019.97 509.532 1005.88 503.303 991.793C497.14 977.858 491.004 963.912 484.885 949.958C479.112 936.795 473.314 923.644 467.5 910.5C460.938 895.663 454.401 880.815 447.885 865.958C442.112 852.795 436.314 839.644 430.5 826.5C423.938 811.663 417.401 796.815 410.885 781.958C405.112 768.795 399.314 755.645 393.5 742.5C387.294 728.467 381.103 714.426 374.938 700.375C374.568 699.532 374.198 698.69 373.817 697.821C370.839 691.034 367.862 684.246 364.885 677.458C362.278 671.514 359.671 665.569 357.062 659.625C356.693 658.782 356.323 657.94 355.942 657.072C349.752 642.968 343.532 628.878 337.302 614.793C331.14 600.858 325.004 586.912 318.885 572.958C313.112 559.795 307.314 546.645 301.5 533.5C293.054 514.401 284.64 495.289 276.261 476.161C274.702 472.601 273.141 469.042 271.579 465.484C269.576 460.923 267.578 456.361 265.581 451.798C264.825 450.072 264.068 448.346 263.31 446.621C262.265 444.242 261.224 441.862 260.184 439.48C259.874 438.778 259.565 438.076 259.246 437.353C257.906 434.275 256.649 431.304 256 428C260.168 431.52 264.235 435.12 268.25 438.812C271.829 442.085 275.461 445.222 279.25 448.25C285.3 453.128 290.903 458.443 296.555 463.77C299.678 466.71 302.863 469.564 306.113 472.363C308.437 474.379 310.717 476.438 313 478.5C318.323 483.299 323.689 488.041 329.152 492.68C335.733 498.274 342.198 503.957 348.52 509.844C351.974 513.06 355.474 516.205 359.043 519.293C361.386 521.336 363.693 523.417 366 525.5C371.323 530.299 376.689 535.041 382.152 539.68C388.733 545.274 395.198 550.957 401.52 556.844C404.974 560.06 408.474 563.205 412.043 566.293C414.386 568.336 416.693 570.417 419 572.5C424.323 577.299 429.689 582.041 435.152 586.68C441.733 592.274 448.198 597.957 454.52 603.844C457.974 607.06 461.474 610.205 465.043 613.293C467.386 615.336 469.693 617.417 472 619.5C477.323 624.299 482.689 629.041 488.152 633.68C494.733 639.274 501.198 644.957 507.52 650.844C510.974 654.06 514.474 657.205 518.043 660.293C520.386 662.336 522.693 664.417 525 666.5C530.323 671.299 535.689 676.041 541.152 680.68C547.733 686.274 554.198 691.957 560.52 697.844C563.974 701.06 567.474 704.205 571.043 707.293C573.386 709.336 575.693 711.417 578 713.5C583.323 718.299 588.689 723.041 594.152 727.68C601.278 733.738 608.239 739.929 615.086 746.301C620.231 751.067 625.472 755.681 631 760C636.282 758.495 639.478 755.035 643.312 751.312C644.655 750.033 645.999 748.754 647.344 747.477C647.981 746.868 648.617 746.26 649.273 745.634C651.821 743.223 654.456 740.925 657.113 738.637C659.437 736.621 661.717 734.562 664 732.5C667.617 729.236 671.264 726.012 674.938 722.812C677.31 720.728 679.656 718.616 682 716.5C687.323 711.701 692.689 706.959 698.152 702.32C704.733 696.726 711.198 691.043 717.52 685.156C720.974 681.94 724.474 678.795 728.043 675.707C730.386 673.664 732.693 671.583 735 669.5C738.617 666.236 742.264 663.012 745.938 659.812C748.31 657.728 750.656 655.616 753 653.5C756.617 650.236 760.264 647.012 763.938 643.812C766.31 641.728 768.656 639.616 771 637.5C774.617 634.236 778.264 631.012 781.938 627.812C784.31 625.728 786.656 623.616 789 621.5C794.323 616.701 799.689 611.959 805.152 607.32C811.733 601.726 818.198 596.043 824.52 590.156C827.974 586.94 831.474 583.795 835.043 580.707C837.386 578.664 839.693 576.583 842 574.5C845.617 571.236 849.264 568.012 852.938 564.812C855.31 562.728 857.656 560.616 860 558.5C863.617 555.236 867.264 552.012 870.938 548.812C873.31 546.728 875.656 544.616 878 542.5C881.617 539.236 885.264 536.012 888.938 532.812C891.31 530.728 893.656 528.616 896 526.5C901.323 521.701 906.689 516.959 912.152 512.32C918.733 506.726 925.198 501.043 931.52 495.156C934.974 491.94 938.474 488.795 942.043 485.707C944.386 483.664 946.693 481.583 949 479.5C952.617 476.236 956.264 473.012 959.938 469.812C962.31 467.728 964.656 465.616 967 463.5C970.617 460.236 974.264 457.012 977.938 453.812C980.31 451.728 982.656 449.616 985 447.5C988.609 444.243 992.246 441.025 995.914 437.836C999.28 434.873 1002.59 431.844 1005.9 428.82C1008 427 1008 427 1010 426Z"/>
</mask>
<path d="M1010 426C1010.33 426.66 1010.66 427.32 1011 428C1010.23 430.176 1009.34 432.312 1008.41 434.426C1008.11 435.099 1007.82 435.772 1007.52 436.465C1006.52 438.751 1005.51 441.032 1004.5 443.312C1003.78 444.954 1003.06 446.596 1002.34 448.239C1000.76 451.858 999.176 455.476 997.588 459.093C994.88 465.265 992.196 471.448 989.516 477.633C989.047 478.714 988.579 479.794 988.096 480.908C987.135 483.126 986.174 485.344 985.213 487.563C982.747 493.251 980.278 498.938 977.809 504.625C977.32 505.751 976.83 506.878 976.327 508.038C968.225 526.695 960.113 545.348 952 564C948.521 572 945.041 580 941.562 588C941.138 588.975 940.714 589.95 940.277 590.955C935.344 602.3 930.416 613.647 925.5 625C920.157 637.338 914.799 649.67 909.438 662C909.015 662.972 908.592 663.944 908.157 664.945C904.664 672.977 901.171 681.009 897.677 689.041C894.639 696.027 891.601 703.014 888.562 710C888.139 710.973 887.716 711.946 887.28 712.949C882.346 724.296 877.417 735.645 872.5 747C867.157 759.338 861.799 771.67 856.438 784C856.015 784.972 855.592 785.944 855.157 786.945C851.664 794.977 848.171 803.009 844.677 811.041C841.639 818.027 838.601 825.014 835.562 832C835.139 832.973 834.716 833.946 834.28 834.949C829.346 846.296 824.417 857.645 819.5 869C814.157 881.338 808.799 893.67 803.438 906C803.015 906.972 802.592 907.944 802.157 908.945C798.664 916.977 795.171 925.009 791.677 933.041C788.639 940.027 785.601 947.014 782.562 954C782.139 954.973 781.716 955.946 781.28 956.949C776.346 968.296 771.417 979.645 766.5 991C761.157 1003.34 755.799 1015.67 750.438 1028C750.015 1028.97 749.592 1029.94 749.157 1030.94C745.664 1038.98 742.171 1047.01 738.677 1055.04C735.639 1062.03 732.601 1069.01 729.562 1076C729.139 1076.97 728.716 1077.95 728.28 1078.95C722.84 1091.46 717.409 1103.97 711.988 1116.49C707.211 1127.52 702.418 1138.54 697.625 1149.56C690.242 1166.54 682.868 1183.52 675.5 1200.5C668.006 1217.77 660.507 1235.04 653 1252.31C652.59 1253.25 652.181 1254.2 651.759 1255.17C651.164 1256.54 651.164 1256.54 650.557 1257.93C650.171 1258.82 649.784 1259.71 649.387 1260.63C648.641 1262.34 647.895 1264.05 647.148 1265.76C645.4 1269.77 643.665 1273.78 641.957 1277.8C641.636 1278.55 641.316 1279.3 640.985 1280.07C640.387 1281.47 639.793 1282.87 639.206 1284.28C637.225 1288.89 637.225 1288.89 635 1290C627.076 1273.01 619.519 1255.87 612.001 1238.7C611.609 1237.8 611.217 1236.9 610.812 1235.98C610.417 1235.08 610.021 1234.17 609.614 1233.24C605.267 1223.32 600.884 1213.41 596.5 1203.5C589.937 1188.66 583.401 1173.82 576.885 1158.96C571.112 1145.8 565.314 1132.64 559.5 1119.5C553.294 1105.47 547.103 1091.43 540.938 1077.38C540.568 1076.53 540.198 1075.69 539.817 1074.82C536.839 1068.03 533.862 1061.25 530.885 1054.46C528.278 1048.51 525.671 1042.57 523.062 1036.62C522.693 1035.78 522.323 1034.94 521.942 1034.07C515.752 1019.97 509.532 1005.88 503.303 991.793C497.14 977.858 491.004 963.912 484.885 949.958C479.112 936.795 473.314 923.644 467.5 910.5C460.938 895.663 454.401 880.815 447.885 865.958C442.112 852.795 436.314 839.644 430.5 826.5C423.938 811.663 417.401 796.815 410.885 781.958C405.112 768.795 399.314 755.645 393.5 742.5C387.294 728.467 381.103 714.426 374.938 700.375C374.568 699.532 374.198 698.69 373.817 697.821C370.839 691.034 367.862 684.246 364.885 677.458C362.278 671.514 359.671 665.569 357.062 659.625C356.693 658.782 356.323 657.94 355.942 657.072C349.752 642.968 343.532 628.878 337.302 614.793C331.14 600.858 325.004 586.912 318.885 572.958C313.112 559.795 307.314 546.645 301.5 533.5C293.054 514.401 284.64 495.289 276.261 476.161C274.702 472.601 273.141 469.042 271.579 465.484C269.576 460.923 267.578 456.361 265.581 451.798C264.825 450.072 264.068 448.346 263.31 446.621C262.265 444.242 261.224 441.862 260.184 439.48C259.874 438.778 259.565 438.076 259.246 437.353C257.906 434.275 256.649 431.304 256 428C260.168 431.52 264.235 435.12 268.25 438.812C271.829 442.085 275.461 445.222 279.25 448.25C285.3 453.128 290.903 458.443 296.555 463.77C299.678 466.71 302.863 469.564 306.113 472.363C308.437 474.379 310.717 476.438 313 478.5C318.323 483.299 323.689 488.041 329.152 492.68C335.733 498.274 342.198 503.957 348.52 509.844C351.974 513.06 355.474 516.205 359.043 519.293C361.386 521.336 363.693 523.417 366 525.5C371.323 530.299 376.689 535.041 382.152 539.68C388.733 545.274 395.198 550.957 401.52 556.844C404.974 560.06 408.474 563.205 412.043 566.293C414.386 568.336 416.693 570.417 419 572.5C424.323 577.299 429.689 582.041 435.152 586.68C441.733 592.274 448.198 597.957 454.52 603.844C457.974 607.06 461.474 610.205 465.043 613.293C467.386 615.336 469.693 617.417 472 619.5C477.323 624.299 482.689 629.041 488.152 633.68C494.733 639.274 501.198 644.957 507.52 650.844C510.974 654.06 514.474 657.205 518.043 660.293C520.386 662.336 522.693 664.417 525 666.5C530.323 671.299 535.689 676.041 541.152 680.68C547.733 686.274 554.198 691.957 560.52 697.844C563.974 701.06 567.474 704.205 571.043 707.293C573.386 709.336 575.693 711.417 578 713.5C583.323 718.299 588.689 723.041 594.152 727.68C601.278 733.738 608.239 739.929 615.086 746.301C620.231 751.067 625.472 755.681 631 760C636.282 758.495 639.478 755.035 643.312 751.312C644.655 750.033 645.999 748.754 647.344 747.477C647.981 746.868 648.617 746.26 649.273 745.634C651.821 743.223 654.456 740.925 657.113 738.637C659.437 736.621 661.717 734.562 664 732.5C667.617 729.236 671.264 726.012 674.938 722.812C677.31 720.728 679.656 718.616 682 716.5C687.323 711.701 692.689 706.959 698.152 702.32C704.733 696.726 711.198 691.043 717.52 685.156C720.974 681.94 724.474 678.795 728.043 675.707C730.386 673.664 732.693 671.583 735 669.5C738.617 666.236 742.264 663.012 745.938 659.812C748.31 657.728 750.656 655.616 753 653.5C756.617 650.236 760.264 647.012 763.938 643.812C766.31 641.728 768.656 639.616 771 637.5C774.617 634.236 778.264 631.012 781.938 627.812C784.31 625.728 786.656 623.616 789 621.5C794.323 616.701 799.689 611.959 805.152 607.32C811.733 601.726 818.198 596.043 824.52 590.156C827.974 586.94 831.474 583.795 835.043 580.707C837.386 578.664 839.693 576.583 842 574.5C845.617 571.236 849.264 568.012 852.938 564.812C855.31 562.728 857.656 560.616 860 558.5C863.617 555.236 867.264 552.012 870.938 548.812C873.31 546.728 875.656 544.616 878 542.5C881.617 539.236 885.264 536.012 888.938 532.812C891.31 530.728 893.656 528.616 896 526.5C901.323 521.701 906.689 516.959 912.152 512.32C918.733 506.726 925.198 501.043 931.52 495.156C934.974 491.94 938.474 488.795 942.043 485.707C944.386 483.664 946.693 481.583 949 479.5C952.617 476.236 956.264 473.012 959.938 469.812C962.31 467.728 964.656 465.616 967 463.5C970.617 460.236 974.264 457.012 977.938 453.812C980.31 451.728 982.656 449.616 985 447.5C988.609 444.243 992.246 441.025 995.914 437.836C999.28 434.873 1002.59 431.844 1005.9 428.82C1008 427 1008 427 1010 426Z" fill="#0A2549" stroke="black" stroke-width="2" mask="url(#path-3-inside-2_1842_101)"/>
<path d="M3019 435C3030.7 449.039 3030.7 449.039 3035 455.625C3035.5 456.386 3036 457.147 3036.52 457.931C3049.3 477.639 3059.2 498.864 3067 521L3067.79 518.867C3072.64 505.866 3077.47 493.018 3084.05 480.787C3085.02 478.971 3085.94 477.138 3086.85 475.297C3094.06 460.985 3103.63 446.374 3115 435H3216V773H3140L3139 520C3131.16 530.715 3131.16 530.715 3124.25 541.938C3123.88 542.601 3123.52 543.265 3123.14 543.948C3114.38 560.205 3109.6 577.626 3107.25 595.875C3107.13 596.77 3107.02 597.664 3106.9 598.586C3104.54 619.011 3104.81 639.676 3104.7 660.207C3104.67 664.187 3104.65 668.167 3104.62 672.146C3104.57 679.647 3104.53 687.147 3104.48 694.647C3104.42 704.808 3104.36 714.968 3104.29 725.129C3104.19 741.086 3104.1 757.043 3104 773H3029L3028.89 738.223C3028.86 730.908 3028.83 723.594 3028.79 716.279C3028.74 704.695 3028.69 693.111 3028.65 681.527C3028.63 673.087 3028.6 664.646 3028.55 656.205C3028.53 651.747 3028.51 647.288 3028.5 642.83C3028.45 610.528 3027.64 578.499 3013 549C3012.69 548.357 3012.37 547.714 3012.05 547.052C3007.52 537.827 3002.34 528.338 2995 521L2994 773H2918V435H3019Z" fill="#F2F2F2"/>
<path d="M3019 435C3030.7 449.039 3030.7 449.039 3035 455.625C3035.5 456.386 3036 457.147 3036.52 457.931C3049.3 477.639 3059.2 498.864 3067 521L3067.79 518.867C3072.64 505.866 3077.47 493.018 3084.05 480.787C3085.02 478.971 3085.94 477.138 3086.85 475.297C3094.06 460.985 3103.63 446.374 3115 435H3216V773H3140L3139 520C3131.16 530.715 3131.16 530.715 3124.25 541.938C3123.88 542.601 3123.52 543.265 3123.14 543.948C3114.38 560.205 3109.6 577.626 3107.25 595.875C3107.13 596.77 3107.02 597.664 3106.9 598.586C3104.54 619.011 3104.81 639.676 3104.7 660.207C3104.67 664.187 3104.65 668.167 3104.62 672.146C3104.57 679.647 3104.53 687.147 3104.48 694.647C3104.42 704.808 3104.36 714.968 3104.29 725.129C3104.19 741.086 3104.1 757.043 3104 773H3029L3028.89 738.223C3028.86 730.908 3028.83 723.594 3028.79 716.279C3028.74 704.695 3028.69 693.111 3028.65 681.527C3028.63 673.087 3028.6 664.646 3028.55 656.205C3028.53 651.747 3028.51 647.288 3028.5 642.83C3028.45 610.528 3027.64 578.499 3013 549C3012.69 548.357 3012.37 547.714 3012.05 547.052C3007.52 537.827 3002.34 528.338 2995 521L2994 773H2918V435H3019Z" stroke="black"/>
<path d="M1941 927C2085.96 927 2085.96 927 2107.79 947.723C2116.49 956.675 2121.5 967.217 2124.75 979.188C2124.95 979.904 2125.15 980.62 2125.35 981.358C2128.92 995.417 2129.3 1009.86 2129.26 1024.28C2129.26 1026.03 2129.27 1027.79 2129.27 1029.55C2129.28 1034.27 2129.27 1038.99 2129.27 1043.71C2129.26 1048.69 2129.27 1053.66 2129.27 1058.64C2129.28 1066.98 2129.27 1075.33 2129.26 1083.68C2129.25 1093.29 2129.25 1102.9 2129.26 1112.51C2129.27 1120.8 2129.27 1129.1 2129.27 1137.4C2129.27 1142.33 2129.27 1147.27 2129.27 1152.2C2129.28 1156.84 2129.27 1161.49 2129.26 1166.13C2129.26 1167.82 2129.26 1169.51 2129.27 1171.2C2129.3 1185.44 2128.62 1199.8 2124.88 1213.62C2124.66 1214.41 2124.45 1215.2 2124.23 1216C2119.42 1232.66 2109.93 1246.45 2094.69 1255.21C2049.97 1277.91 1977.89 1265 1941 1265V927ZM2046.38 996C2036.99 990.44 2028.25 992 2017 992V1200C2033.9 1201.45 2033.9 1201.45 2048.38 1194.81C2051.71 1189.04 2052.25 1183.02 2052.26 1176.46C2052.26 1175.75 2052.27 1175.03 2052.27 1174.3C2052.28 1171.93 2052.28 1169.56 2052.27 1167.19C2052.28 1165.48 2052.28 1163.77 2052.29 1162.06C2052.3 1157.43 2052.3 1152.81 2052.3 1148.18C2052.3 1144.31 2052.31 1140.44 2052.31 1136.57C2052.32 1127.44 2052.32 1118.31 2052.32 1109.18C2052.31 1099.77 2052.32 1090.37 2052.34 1080.96C2052.36 1072.88 2052.37 1064.79 2052.36 1056.7C2052.36 1051.87 2052.36 1047.05 2052.38 1042.22C2052.39 1037.68 2052.39 1033.14 2052.38 1028.61C2052.37 1026.95 2052.38 1025.28 2052.38 1023.62C2052.76 1008.82 2052.76 1008.82 2046.38 996Z" fill="#F2F2F2"/>
<path d="M1941 927C2085.96 927 2085.96 927 2107.79 947.723C2116.49 956.675 2121.5 967.217 2124.75 979.188C2124.95 979.904 2125.15 980.62 2125.35 981.358C2128.92 995.417 2129.3 1009.86 2129.26 1024.28C2129.26 1026.03 2129.27 1027.79 2129.27 1029.55C2129.28 1034.27 2129.27 1038.99 2129.27 1043.71C2129.26 1048.69 2129.27 1053.66 2129.27 1058.64C2129.28 1066.98 2129.27 1075.33 2129.26 1083.68C2129.25 1093.29 2129.25 1102.9 2129.26 1112.51C2129.27 1120.8 2129.27 1129.1 2129.27 1137.4C2129.27 1142.33 2129.27 1147.27 2129.27 1152.2C2129.28 1156.84 2129.27 1161.49 2129.26 1166.13C2129.26 1167.82 2129.26 1169.51 2129.27 1171.2C2129.3 1185.44 2128.62 1199.8 2124.88 1213.62C2124.66 1214.41 2124.45 1215.2 2124.23 1216C2119.42 1232.66 2109.93 1246.45 2094.69 1255.21C2049.97 1277.91 1977.89 1265 1941 1265V927ZM2046.38 996C2036.99 990.44 2028.25 992 2017 992V1200C2033.9 1201.45 2033.9 1201.45 2048.38 1194.81C2051.71 1189.04 2052.25 1183.02 2052.26 1176.46C2052.26 1175.75 2052.27 1175.03 2052.27 1174.3C2052.28 1171.93 2052.28 1169.56 2052.27 1167.19C2052.28 1165.48 2052.28 1163.77 2052.29 1162.06C2052.3 1157.43 2052.3 1152.81 2052.3 1148.18C2052.3 1144.31 2052.31 1140.44 2052.31 1136.57C2052.32 1127.44 2052.32 1118.31 2052.32 1109.18C2052.31 1099.77 2052.32 1090.37 2052.34 1080.96C2052.36 1072.88 2052.37 1064.79 2052.36 1056.7C2052.36 1051.87 2052.36 1047.05 2052.38 1042.22C2052.39 1037.68 2052.39 1033.14 2052.38 1028.61C2052.37 1026.95 2052.38 1025.28 2052.38 1023.62C2052.76 1008.82 2052.76 1008.82 2046.38 996Z" stroke="black"/>
<path d="M2800 927C2945.36 927 2945.36 927 2966.31 946.688C2988.64 970.446 2988.81 1008.17 2988.11 1038.8C2987.48 1057.27 2984.76 1079.43 2971.25 1093.25C2969.24 1095.08 2967.28 1096.48 2965 1098C2966.23 1108.39 2967.69 1118.71 2969.43 1129.03C2969.67 1130.45 2969.9 1131.87 2970.14 1133.29C2970.64 1136.32 2971.15 1139.34 2971.66 1142.36C2972.46 1147.14 2973.25 1151.93 2974.05 1156.71C2976.03 1168.58 2978.01 1180.44 2979.99 1192.3C2981.54 1201.56 2983.09 1210.82 2984.62 1220.08C2985.42 1224.83 2986.21 1229.58 2987.01 1234.33C2987.5 1237.28 2987.99 1240.23 2988.48 1243.19C2988.71 1244.55 2988.94 1245.92 2989.17 1247.28C2989.49 1249.15 2989.79 1251.01 2990.1 1252.88C2990.36 1254.45 2990.36 1254.45 2990.63 1256.04C2991 1259 2991 1259 2991 1265H2912C2906.55 1223.16 2906.55 1223.16 2904.82 1209.84C2904.71 1208.97 2904.6 1208.09 2904.48 1207.19C2902.12 1189 2899.79 1170.81 2897.47 1152.62C2897.07 1149.5 2896.68 1146.38 2896.28 1143.26C2895.81 1139.59 2895.34 1135.92 2894.88 1132.25C2894.62 1130.27 2894.37 1128.29 2894.12 1126.31C2893.97 1125.14 2893.82 1123.96 2893.67 1122.75C2893.54 1121.73 2893.41 1120.71 2893.27 1119.66C2893 1117 2893 1117 2893 1113H2876V1265H2800V927ZM2906 993C2896.67 985.004 2884.7 987 2873 987V1055C2892.24 1056.12 2892.24 1056.12 2908 1048.5C2913.5 1040.3 2913.29 1030.36 2913.38 1020.88C2913.39 1019.86 2913.4 1018.85 2913.42 1017.81C2913.36 1008.77 2911.94 1000.13 2906 993Z" fill="#F2F2F2"/>
<path d="M2800 927C2945.36 927 2945.36 927 2966.31 946.688C2988.64 970.446 2988.81 1008.17 2988.11 1038.8C2987.48 1057.27 2984.76 1079.43 2971.25 1093.25C2969.24 1095.08 2967.28 1096.48 2965 1098C2966.23 1108.39 2967.69 1118.71 2969.43 1129.03C2969.67 1130.45 2969.9 1131.87 2970.14 1133.29C2970.64 1136.32 2971.15 1139.34 2971.66 1142.36C2972.46 1147.14 2973.25 1151.93 2974.05 1156.71C2976.03 1168.58 2978.01 1180.44 2979.99 1192.3C2981.54 1201.56 2983.09 1210.82 2984.62 1220.08C2985.42 1224.83 2986.21 1229.58 2987.01 1234.33C2987.5 1237.28 2987.99 1240.23 2988.48 1243.19C2988.71 1244.55 2988.94 1245.92 2989.17 1247.28C2989.49 1249.15 2989.79 1251.01 2990.1 1252.88C2990.36 1254.45 2990.36 1254.45 2990.63 1256.04C2991 1259 2991 1259 2991 1265H2912C2906.55 1223.16 2906.55 1223.16 2904.82 1209.84C2904.71 1208.97 2904.6 1208.09 2904.48 1207.19C2902.12 1189 2899.79 1170.81 2897.47 1152.62C2897.07 1149.5 2896.68 1146.38 2896.28 1143.26C2895.81 1139.59 2895.34 1135.92 2894.88 1132.25C2894.62 1130.27 2894.37 1128.29 2894.12 1126.31C2893.97 1125.14 2893.82 1123.96 2893.67 1122.75C2893.54 1121.73 2893.41 1120.71 2893.27 1119.66C2893 1117 2893 1117 2893 1113H2876V1265H2800V927ZM2906 993C2896.67 985.004 2884.7 987 2873 987V1055C2892.24 1056.12 2892.24 1056.12 2908 1048.5C2913.5 1040.3 2913.29 1030.36 2913.38 1020.88C2913.39 1019.86 2913.4 1018.85 2913.42 1017.81C2913.36 1008.77 2911.94 1000.13 2906 993Z" stroke="black"/>
<path d="M2348 435C2493.36 435 2493.36 435 2514.31 454.688C2536.64 478.446 2536.81 516.173 2536.11 546.804C2535.48 565.266 2532.76 587.425 2519.25 601.25C2517.24 603.076 2515.28 604.479 2513 606C2514.23 616.391 2515.69 626.712 2517.43 637.032C2517.67 638.453 2517.9 639.874 2518.14 641.295C2518.64 644.317 2519.15 647.34 2519.66 650.361C2520.46 655.144 2521.25 659.927 2522.05 664.711C2524.03 676.576 2526.01 688.44 2527.99 700.304C2529.54 709.56 2531.09 718.818 2532.62 728.076C2533.42 732.829 2534.21 737.581 2535.01 742.332C2535.5 745.283 2535.99 748.234 2536.48 751.186C2536.71 752.551 2536.94 753.916 2537.17 755.28C2537.49 757.146 2537.79 759.015 2538.1 760.882C2538.36 762.446 2538.36 762.446 2538.63 764.042C2539 767 2539 767 2539 773H2460C2454.55 731.158 2454.55 731.158 2452.82 717.844C2452.71 716.967 2452.6 716.089 2452.48 715.186C2450.12 697.001 2447.79 678.814 2445.47 660.625C2445.07 657.502 2444.68 654.379 2444.28 651.257C2443.81 647.589 2443.34 643.921 2442.88 640.252C2442.62 638.272 2442.37 636.292 2442.12 634.312C2441.97 633.136 2441.82 631.961 2441.67 630.75C2441.54 629.73 2441.41 628.709 2441.27 627.658C2441 625 2441 625 2441 621H2424V773H2348V435ZM2454 501C2444.67 493.004 2432.7 495 2421 495V563C2440.24 564.118 2440.24 564.118 2456 556.5C2461.5 548.303 2461.29 538.36 2461.38 528.875C2461.39 527.862 2461.4 526.849 2461.42 525.806C2461.36 516.765 2459.94 508.128 2454 501Z" fill="#F2F2F2"/>
<path d="M2348 435C2493.36 435 2493.36 435 2514.31 454.688C2536.64 478.446 2536.81 516.173 2536.11 546.804C2535.48 565.266 2532.76 587.425 2519.25 601.25C2517.24 603.076 2515.28 604.479 2513 606C2514.23 616.391 2515.69 626.712 2517.43 637.032C2517.67 638.453 2517.9 639.874 2518.14 641.295C2518.64 644.317 2519.15 647.34 2519.66 650.361C2520.46 655.144 2521.25 659.927 2522.05 664.711C2524.03 676.576 2526.01 688.44 2527.99 700.304C2529.54 709.56 2531.09 718.818 2532.62 728.076C2533.42 732.829 2534.21 737.581 2535.01 742.332C2535.5 745.283 2535.99 748.234 2536.48 751.186C2536.71 752.551 2536.94 753.916 2537.17 755.28C2537.49 757.146 2537.79 759.015 2538.1 760.882C2538.36 762.446 2538.36 762.446 2538.63 764.042C2539 767 2539 767 2539 773H2460C2454.55 731.158 2454.55 731.158 2452.82 717.844C2452.71 716.967 2452.6 716.089 2452.48 715.186C2450.12 697.001 2447.79 678.814 2445.47 660.625C2445.07 657.502 2444.68 654.379 2444.28 651.257C2443.81 647.589 2443.34 643.921 2442.88 640.252C2442.62 638.272 2442.37 636.292 2442.12 634.312C2441.97 633.136 2441.82 631.961 2441.67 630.75C2441.54 629.73 2441.41 628.709 2441.27 627.658C2441 625 2441 625 2441 621H2424V773H2348V435ZM2454 501C2444.67 493.004 2432.7 495 2421 495V563C2440.24 564.118 2440.24 564.118 2456 556.5C2461.5 548.303 2461.29 538.36 2461.38 528.875C2461.39 527.862 2461.4 526.849 2461.42 525.806C2461.36 516.765 2459.94 508.128 2454 501Z" stroke="black"/>
<path d="M3626.94 922.626C3628.12 922.633 3628.12 922.633 3629.32 922.64C3651.21 922.791 3672.99 925.393 3691 939.001L3693.35 940.731C3711.51 955.365 3717.04 980.03 3720 1002C3720.25 1003.81 3720.25 1003.81 3720.51 1005.65C3721.3 1012.84 3721.16 1020.06 3721.16 1027.28C3721.17 1028.92 3721.17 1030.56 3721.18 1032.2C3721.19 1036.64 3721.2 1041.08 3721.2 1045.52C3721.2 1048.3 3721.21 1051.09 3721.21 1053.87C3721.23 1062.61 3721.24 1071.35 3721.24 1080.09C3721.24 1090.13 3721.26 1100.16 3721.29 1110.19C3721.31 1117.98 3721.32 1125.77 3721.32 1133.56C3721.33 1138.2 3721.33 1142.83 3721.35 1147.47C3721.62 1220.56 3721.62 1220.56 3699 1246L3697.53 1247.75C3682.18 1264.64 3657.72 1268.97 3636.02 1270.17C3609.32 1271.2 3579.53 1268.35 3558.69 1249.88C3546.16 1238.11 3540.32 1222.05 3536.75 1205.63C3536.6 1204.93 3536.45 1204.24 3536.29 1203.53C3533.51 1189.57 3532.7 1175.47 3532.73 1161.28C3532.72 1159.7 3532.72 1158.12 3532.71 1156.54C3532.7 1152.31 3532.7 1148.08 3532.7 1143.85C3532.7 1140.29 3532.7 1136.72 3532.69 1133.16C3532.68 1124.74 3532.68 1116.32 3532.69 1107.89C3532.69 1099.27 3532.68 1090.65 3532.66 1082.04C3532.64 1074.57 3532.63 1067.11 3532.64 1059.65C3532.64 1055.22 3532.64 1050.79 3532.62 1046.36C3532.41 972.361 3532.41 972.361 3555 947.001L3556.66 945.032C3573.98 925.949 3602.58 922.368 3626.94 922.626ZM3640.69 992.438C3635.52 987.752 3630.69 987.618 3623.95 987.751C3619.87 988.096 3617.49 988.848 3614 991.001C3607.06 1000.72 3608.71 1014.89 3608.74 1026.35C3608.74 1028.06 3608.74 1029.76 3608.73 1031.47C3608.72 1036.07 3608.73 1040.66 3608.73 1045.26C3608.74 1050.09 3608.73 1054.93 3608.73 1059.76C3608.73 1067.87 3608.73 1075.98 3608.74 1084.09C3608.75 1093.44 3608.75 1102.79 3608.74 1112.15C3608.73 1120.2 3608.73 1128.26 3608.73 1136.32C3608.73 1141.12 3608.74 1145.92 3608.73 1150.72C3608.72 1155.23 3608.73 1159.75 3608.74 1164.26C3608.74 1165.91 3608.74 1167.56 3608.74 1169.21C3608.23 1185.86 3608.23 1185.86 3614 1201C3618.97 1205.35 3623.69 1205.28 3630.05 1205.22C3634.95 1204.86 3637.66 1203.19 3641.25 1200C3646.59 1190.84 3645.29 1178.78 3645.26 1168.5C3645.26 1166.75 3645.27 1165 3645.27 1163.25C3645.28 1158.54 3645.28 1153.82 3645.27 1149.1C3645.26 1144.15 3645.27 1139.2 3645.27 1134.24C3645.28 1125.93 3645.27 1117.61 3645.26 1109.3C3645.25 1099.71 3645.25 1090.11 3645.27 1080.52C3645.27 1072.26 3645.28 1064 3645.27 1055.75C3645.27 1050.82 3645.27 1045.9 3645.27 1040.98C3645.28 1036.35 3645.28 1031.72 3645.26 1027.09C3645.26 1025.4 3645.26 1023.71 3645.27 1022.01C3646 1006.45 3646 1006.45 3640.69 992.438Z" fill="#F2F2F2"/>
<path d="M3626.94 922.626C3628.12 922.633 3628.12 922.633 3629.32 922.64C3651.21 922.791 3672.99 925.393 3691 939.001L3693.35 940.731C3711.51 955.365 3717.04 980.03 3720 1002C3720.25 1003.81 3720.25 1003.81 3720.51 1005.65C3721.3 1012.84 3721.16 1020.06 3721.16 1027.28C3721.17 1028.92 3721.17 1030.56 3721.18 1032.2C3721.19 1036.64 3721.2 1041.08 3721.2 1045.52C3721.2 1048.3 3721.21 1051.09 3721.21 1053.87C3721.23 1062.61 3721.24 1071.35 3721.24 1080.09C3721.24 1090.13 3721.26 1100.16 3721.29 1110.19C3721.31 1117.98 3721.32 1125.77 3721.32 1133.56C3721.33 1138.2 3721.33 1142.83 3721.35 1147.47C3721.62 1220.56 3721.62 1220.56 3699 1246L3697.53 1247.75C3682.18 1264.64 3657.72 1268.97 3636.02 1270.17C3609.32 1271.2 3579.53 1268.35 3558.69 1249.88C3546.16 1238.11 3540.32 1222.05 3536.75 1205.63C3536.6 1204.93 3536.45 1204.24 3536.29 1203.53C3533.51 1189.57 3532.7 1175.47 3532.73 1161.28C3532.72 1159.7 3532.72 1158.12 3532.71 1156.54C3532.7 1152.31 3532.7 1148.08 3532.7 1143.85C3532.7 1140.29 3532.7 1136.72 3532.69 1133.16C3532.68 1124.74 3532.68 1116.32 3532.69 1107.89C3532.69 1099.27 3532.68 1090.65 3532.66 1082.04C3532.64 1074.57 3532.63 1067.11 3532.64 1059.65C3532.64 1055.22 3532.64 1050.79 3532.62 1046.36C3532.41 972.361 3532.41 972.361 3555 947.001L3556.66 945.032C3573.98 925.949 3602.58 922.368 3626.94 922.626ZM3640.69 992.438C3635.52 987.752 3630.69 987.618 3623.95 987.751C3619.87 988.096 3617.49 988.848 3614 991.001C3607.06 1000.72 3608.71 1014.89 3608.74 1026.35C3608.74 1028.06 3608.74 1029.76 3608.73 1031.47C3608.72 1036.07 3608.73 1040.66 3608.73 1045.26C3608.74 1050.09 3608.73 1054.93 3608.73 1059.76C3608.73 1067.87 3608.73 1075.98 3608.74 1084.09C3608.75 1093.44 3608.75 1102.79 3608.74 1112.15C3608.73 1120.2 3608.73 1128.26 3608.73 1136.32C3608.73 1141.12 3608.74 1145.92 3608.73 1150.72C3608.72 1155.23 3608.73 1159.75 3608.74 1164.26C3608.74 1165.91 3608.74 1167.56 3608.74 1169.21C3608.23 1185.86 3608.23 1185.86 3614 1201C3618.97 1205.35 3623.69 1205.28 3630.05 1205.22C3634.95 1204.86 3637.66 1203.19 3641.25 1200C3646.59 1190.84 3645.29 1178.78 3645.26 1168.5C3645.26 1166.75 3645.27 1165 3645.27 1163.25C3645.28 1158.54 3645.28 1153.82 3645.27 1149.1C3645.26 1144.15 3645.27 1139.2 3645.27 1134.24C3645.28 1125.93 3645.27 1117.61 3645.26 1109.3C3645.25 1099.71 3645.25 1090.11 3645.27 1080.52C3645.27 1072.26 3645.28 1064 3645.27 1055.75C3645.27 1050.82 3645.27 1045.9 3645.27 1040.98C3645.28 1036.35 3645.28 1031.72 3645.26 1027.09C3645.26 1025.4 3645.26 1023.71 3645.27 1022.01C3646 1006.45 3646 1006.45 3640.69 992.438Z" stroke="black"/>
<path d="M2664.94 922.626C2666.12 922.633 2666.12 922.633 2667.32 922.64C2689.21 922.791 2710.99 925.393 2729 939.001L2731.35 940.731C2749.51 955.365 2755.04 980.03 2758 1002C2758.25 1003.81 2758.25 1003.81 2758.51 1005.65C2759.3 1012.84 2759.16 1020.06 2759.16 1027.28C2759.17 1028.92 2759.17 1030.56 2759.18 1032.2C2759.19 1036.64 2759.2 1041.08 2759.2 1045.52C2759.2 1048.3 2759.21 1051.09 2759.21 1053.87C2759.23 1062.61 2759.24 1071.35 2759.24 1080.09C2759.24 1090.13 2759.26 1100.16 2759.29 1110.19C2759.31 1117.98 2759.32 1125.77 2759.32 1133.56C2759.33 1138.2 2759.33 1142.83 2759.35 1147.47C2759.62 1220.56 2759.62 1220.56 2737 1246L2735.53 1247.75C2720.18 1264.64 2695.72 1268.97 2674.02 1270.17C2647.32 1271.2 2617.53 1268.35 2596.69 1249.88C2584.16 1238.11 2578.32 1222.05 2574.75 1205.63C2574.6 1204.93 2574.45 1204.24 2574.29 1203.53C2571.51 1189.57 2570.7 1175.47 2570.73 1161.28C2570.72 1159.7 2570.72 1158.12 2570.71 1156.54C2570.7 1152.31 2570.7 1148.08 2570.7 1143.85C2570.7 1140.29 2570.7 1136.72 2570.69 1133.16C2570.68 1124.74 2570.68 1116.32 2570.69 1107.89C2570.69 1099.27 2570.68 1090.65 2570.66 1082.04C2570.64 1074.57 2570.63 1067.11 2570.64 1059.65C2570.64 1055.22 2570.64 1050.79 2570.62 1046.36C2570.41 972.361 2570.41 972.361 2593 947.001L2594.66 945.032C2611.98 925.949 2640.58 922.368 2664.94 922.626ZM2678.69 992.438C2673.52 987.752 2668.69 987.618 2661.95 987.751C2657.87 988.096 2655.49 988.848 2652 991.001C2645.06 1000.72 2646.71 1014.89 2646.74 1026.35C2646.74 1028.06 2646.74 1029.76 2646.73 1031.47C2646.72 1036.07 2646.73 1040.66 2646.73 1045.26C2646.74 1050.09 2646.73 1054.93 2646.73 1059.76C2646.73 1067.87 2646.73 1075.98 2646.74 1084.09C2646.75 1093.44 2646.75 1102.79 2646.74 1112.15C2646.73 1120.2 2646.73 1128.26 2646.73 1136.32C2646.73 1141.12 2646.74 1145.92 2646.73 1150.72C2646.72 1155.23 2646.73 1159.75 2646.74 1164.26C2646.74 1165.91 2646.74 1167.56 2646.74 1169.21C2646.23 1185.86 2646.23 1185.86 2652 1201C2656.97 1205.35 2661.69 1205.28 2668.05 1205.22C2672.95 1204.86 2675.66 1203.19 2679.25 1200C2684.59 1190.84 2683.29 1178.78 2683.26 1168.5C2683.26 1166.75 2683.27 1165 2683.27 1163.25C2683.28 1158.54 2683.28 1153.82 2683.27 1149.1C2683.26 1144.15 2683.27 1139.2 2683.27 1134.24C2683.28 1125.93 2683.27 1117.61 2683.26 1109.3C2683.25 1099.71 2683.25 1090.11 2683.27 1080.52C2683.27 1072.26 2683.28 1064 2683.27 1055.75C2683.27 1050.82 2683.27 1045.9 2683.27 1040.98C2683.28 1036.35 2683.28 1031.72 2683.26 1027.09C2683.26 1025.4 2683.26 1023.71 2683.27 1022.01C2684 1006.45 2684 1006.45 2678.69 992.438Z" fill="#F2F2F2"/>
<path d="M2664.94 922.626C2666.12 922.633 2666.12 922.633 2667.32 922.64C2689.21 922.791 2710.99 925.393 2729 939.001L2731.35 940.731C2749.51 955.365 2755.04 980.03 2758 1002C2758.25 1003.81 2758.25 1003.81 2758.51 1005.65C2759.3 1012.84 2759.16 1020.06 2759.16 1027.28C2759.17 1028.92 2759.17 1030.56 2759.18 1032.2C2759.19 1036.64 2759.2 1041.08 2759.2 1045.52C2759.2 1048.3 2759.21 1051.09 2759.21 1053.87C2759.23 1062.61 2759.24 1071.35 2759.24 1080.09C2759.24 1090.13 2759.26 1100.16 2759.29 1110.19C2759.31 1117.98 2759.32 1125.77 2759.32 1133.56C2759.33 1138.2 2759.33 1142.83 2759.35 1147.47C2759.62 1220.56 2759.62 1220.56 2737 1246L2735.53 1247.75C2720.18 1264.64 2695.72 1268.97 2674.02 1270.17C2647.32 1271.2 2617.53 1268.35 2596.69 1249.88C2584.16 1238.11 2578.32 1222.05 2574.75 1205.63C2574.6 1204.93 2574.45 1204.24 2574.29 1203.53C2571.51 1189.57 2570.7 1175.47 2570.73 1161.28C2570.72 1159.7 2570.72 1158.12 2570.71 1156.54C2570.7 1152.31 2570.7 1148.08 2570.7 1143.85C2570.7 1140.29 2570.7 1136.72 2570.69 1133.16C2570.68 1124.74 2570.68 1116.32 2570.69 1107.89C2570.69 1099.27 2570.68 1090.65 2570.66 1082.04C2570.64 1074.57 2570.63 1067.11 2570.64 1059.65C2570.64 1055.22 2570.64 1050.79 2570.62 1046.36C2570.41 972.361 2570.41 972.361 2593 947.001L2594.66 945.032C2611.98 925.949 2640.58 922.368 2664.94 922.626ZM2678.69 992.438C2673.52 987.752 2668.69 987.618 2661.95 987.751C2657.87 988.096 2655.49 988.848 2652 991.001C2645.06 1000.72 2646.71 1014.89 2646.74 1026.35C2646.74 1028.06 2646.74 1029.76 2646.73 1031.47C2646.72 1036.07 2646.73 1040.66 2646.73 1045.26C2646.74 1050.09 2646.73 1054.93 2646.73 1059.76C2646.73 1067.87 2646.73 1075.98 2646.74 1084.09C2646.75 1093.44 2646.75 1102.79 2646.74 1112.15C2646.73 1120.2 2646.73 1128.26 2646.73 1136.32C2646.73 1141.12 2646.74 1145.92 2646.73 1150.72C2646.72 1155.23 2646.73 1159.75 2646.74 1164.26C2646.74 1165.91 2646.74 1167.56 2646.74 1169.21C2646.23 1185.86 2646.23 1185.86 2652 1201C2656.97 1205.35 2661.69 1205.28 2668.05 1205.22C2672.95 1204.86 2675.66 1203.19 2679.25 1200C2684.59 1190.84 2683.29 1178.78 2683.26 1168.5C2683.26 1166.75 2683.27 1165 2683.27 1163.25C2683.28 1158.54 2683.28 1153.82 2683.27 1149.1C2683.26 1144.15 2683.27 1139.2 2683.27 1134.24C2683.28 1125.93 2683.27 1117.61 2683.26 1109.3C2683.25 1099.71 2683.25 1090.11 2683.27 1080.52C2683.27 1072.26 2683.28 1064 2683.27 1055.75C2683.27 1050.82 2683.27 1045.9 2683.27 1040.98C2683.28 1036.35 2683.28 1031.72 2683.26 1027.09C2683.26 1025.4 2683.26 1023.71 2683.27 1022.01C2684 1006.45 2684 1006.45 2678.69 992.438Z" stroke="black"/>
<path d="M3350.94 430.626C3352.12 430.633 3352.12 430.633 3353.32 430.64C3375.21 430.791 3396.99 433.393 3415 447.001L3417.35 448.731C3435.51 463.365 3441.04 488.03 3444 510.001C3444.25 511.809 3444.25 511.81 3444.51 513.654C3445.3 520.838 3445.16 528.063 3445.16 535.279C3445.17 536.92 3445.17 538.56 3445.18 540.2C3445.19 544.639 3445.2 549.078 3445.2 553.517C3445.2 556.301 3445.21 559.085 3445.21 561.869C3445.23 570.611 3445.24 579.352 3445.24 588.094C3445.24 598.126 3445.26 608.158 3445.29 618.189C3445.31 625.98 3445.32 633.771 3445.32 641.562C3445.33 646.197 3445.33 650.832 3445.35 655.467C3445.62 728.557 3445.62 728.558 3423 754.001L3421.53 755.747C3406.18 772.645 3381.72 776.97 3360.02 778.165C3333.32 779.202 3303.53 776.354 3282.69 757.876C3270.16 746.112 3264.32 730.054 3260.75 713.626C3260.6 712.933 3260.45 712.239 3260.29 711.525C3257.51 697.569 3256.7 683.473 3256.73 669.283C3256.72 667.704 3256.72 666.124 3256.71 664.545C3256.7 660.313 3256.7 656.081 3256.7 651.85C3256.7 648.287 3256.7 644.725 3256.69 641.162C3256.68 632.739 3256.68 624.316 3256.69 615.893C3256.69 607.273 3256.68 598.654 3256.66 590.035C3256.64 582.573 3256.63 575.111 3256.64 567.648C3256.64 563.219 3256.64 558.79 3256.62 554.36C3256.41 480.361 3256.41 480.361 3279 455.001L3280.66 453.032C3297.98 433.949 3326.58 430.368 3350.94 430.626ZM3364.69 500.438C3359.52 495.752 3354.69 495.618 3347.95 495.751C3343.87 496.096 3341.49 496.848 3338 499.001C3331.06 508.715 3332.71 522.894 3332.74 534.351C3332.74 536.057 3332.74 537.764 3332.73 539.471C3332.72 544.068 3332.73 548.665 3332.73 553.262C3332.74 558.094 3332.73 562.927 3332.73 567.759C3332.73 575.869 3332.73 583.98 3332.74 592.091C3332.75 601.442 3332.75 610.794 3332.74 620.146C3332.73 628.203 3332.73 636.261 3332.73 644.319C3332.73 649.119 3332.74 653.92 3332.73 658.72C3332.72 663.233 3332.73 667.747 3332.74 672.261C3332.74 673.909 3332.74 675.557 3332.74 677.205C3332.23 693.861 3332.23 693.861 3338 709.001C3342.97 713.35 3347.69 713.285 3354.05 713.216C3358.95 712.859 3361.66 711.194 3365.25 708.001C3370.59 698.842 3369.29 686.782 3369.26 676.495C3369.26 674.748 3369.27 673 3369.27 671.253C3369.28 666.536 3369.28 661.819 3369.27 657.103C3369.26 652.15 3369.27 647.197 3369.27 642.244C3369.28 633.929 3369.27 625.613 3369.26 617.298C3369.25 607.706 3369.25 598.113 3369.27 588.521C3369.27 580.262 3369.28 572.003 3369.27 563.745C3369.27 558.823 3369.27 553.9 3369.27 548.978C3369.28 544.348 3369.28 539.719 3369.26 535.09C3369.26 533.398 3369.26 531.706 3369.27 530.015C3370 514.449 3370 514.449 3364.69 500.438Z" fill="#F2F2F2"/>
<path d="M3350.94 430.626C3352.12 430.633 3352.12 430.633 3353.32 430.64C3375.21 430.791 3396.99 433.393 3415 447.001L3417.35 448.731C3435.51 463.365 3441.04 488.03 3444 510.001C3444.25 511.809 3444.25 511.81 3444.51 513.654C3445.3 520.838 3445.16 528.063 3445.16 535.279C3445.17 536.92 3445.17 538.56 3445.18 540.2C3445.19 544.639 3445.2 549.078 3445.2 553.517C3445.2 556.301 3445.21 559.085 3445.21 561.869C3445.23 570.611 3445.24 579.352 3445.24 588.094C3445.24 598.126 3445.26 608.158 3445.29 618.189C3445.31 625.98 3445.32 633.771 3445.32 641.562C3445.33 646.197 3445.33 650.832 3445.35 655.467C3445.62 728.557 3445.62 728.558 3423 754.001L3421.53 755.747C3406.18 772.645 3381.72 776.97 3360.02 778.165C3333.32 779.202 3303.53 776.354 3282.69 757.876C3270.16 746.112 3264.32 730.054 3260.75 713.626C3260.6 712.933 3260.45 712.239 3260.29 711.525C3257.51 697.569 3256.7 683.473 3256.73 669.283C3256.72 667.704 3256.72 666.124 3256.71 664.545C3256.7 660.313 3256.7 656.081 3256.7 651.85C3256.7 648.287 3256.7 644.725 3256.69 641.162C3256.68 632.739 3256.68 624.316 3256.69 615.893C3256.69 607.273 3256.68 598.654 3256.66 590.035C3256.64 582.573 3256.63 575.111 3256.64 567.648C3256.64 563.219 3256.64 558.79 3256.62 554.36C3256.41 480.361 3256.41 480.361 3279 455.001L3280.66 453.032C3297.98 433.949 3326.58 430.368 3350.94 430.626ZM3364.69 500.438C3359.52 495.752 3354.69 495.618 3347.95 495.751C3343.87 496.096 3341.49 496.848 3338 499.001C3331.06 508.715 3332.71 522.894 3332.74 534.351C3332.74 536.057 3332.74 537.764 3332.73 539.471C3332.72 544.068 3332.73 548.665 3332.73 553.262C3332.74 558.094 3332.73 562.927 3332.73 567.759C3332.73 575.869 3332.73 583.98 3332.74 592.091C3332.75 601.442 3332.75 610.794 3332.74 620.146C3332.73 628.203 3332.73 636.261 3332.73 644.319C3332.73 649.119 3332.74 653.92 3332.73 658.72C3332.72 663.233 3332.73 667.747 3332.74 672.261C3332.74 673.909 3332.74 675.557 3332.74 677.205C3332.23 693.861 3332.23 693.861 3338 709.001C3342.97 713.35 3347.69 713.285 3354.05 713.216C3358.95 712.859 3361.66 711.194 3365.25 708.001C3370.59 698.842 3369.29 686.782 3369.26 676.495C3369.26 674.748 3369.27 673 3369.27 671.253C3369.28 666.536 3369.28 661.819 3369.27 657.103C3369.26 652.15 3369.27 647.197 3369.27 642.244C3369.28 633.929 3369.27 625.613 3369.26 617.298C3369.25 607.706 3369.25 598.113 3369.27 588.521C3369.27 580.262 3369.28 572.003 3369.27 563.745C3369.27 558.823 3369.27 553.9 3369.27 548.978C3369.28 544.348 3369.28 539.719 3369.26 535.09C3369.26 533.398 3369.26 531.706 3369.27 530.015C3370 514.449 3370 514.449 3364.69 500.438Z" stroke="black"/>
<path d="M2193.06 458.401C2193.12 483.137 2193.2 507.873 2193.28 532.608C2193.29 536.453 2193.3 540.299 2193.32 544.144C2193.32 544.909 2193.32 545.674 2193.32 546.463C2193.36 558.841 2193.4 571.22 2193.43 583.599C2193.46 596.309 2193.5 609.019 2193.54 621.729C2193.57 629.566 2193.59 637.403 2193.61 645.24C2193.62 651.259 2193.64 657.279 2193.67 663.298C2193.68 665.76 2193.68 668.222 2193.68 670.684C2193.69 674.056 2193.7 677.428 2193.72 680.8C2193.72 682.247 2193.72 682.248 2193.71 683.725C2193.78 692.409 2193.89 701.676 2199 709C2204.4 713.017 2210.56 712.613 2217 712C2220.03 711.409 2221.32 710.766 2224 709C2228.24 701.5 2228.15 693.744 2228.16 685.37C2228.16 684.299 2228.17 683.228 2228.17 682.125C2228.19 678.537 2228.2 674.948 2228.2 671.36C2228.21 668.788 2228.22 666.215 2228.23 663.643C2228.26 658.105 2228.27 652.567 2228.29 647.029C2228.31 639.023 2228.34 631.015 2228.37 623.009C2228.42 610.018 2228.46 597.027 2228.5 584.036C2228.54 571.418 2228.58 558.8 2228.63 546.182C2228.63 545.404 2228.63 544.626 2228.63 543.824C2228.65 539.921 2228.66 536.017 2228.68 532.114C2228.79 499.743 2228.9 467.371 2229 435H2305C2305.04 466.109 2305.08 497.217 2305.1 528.326C2305.1 532.009 2305.11 535.693 2305.11 539.376C2305.11 540.109 2305.11 540.842 2305.11 541.598C2305.12 553.427 2305.13 565.257 2305.15 577.086C2305.17 589.248 2305.18 601.411 2305.19 613.573C2305.19 620.394 2305.2 627.215 2305.21 634.036C2305.22 640.472 2305.23 646.908 2305.22 653.344C2305.23 655.691 2305.23 658.038 2305.24 660.385C2305.34 692.789 2304.17 731.762 2280.39 756.723C2260.33 775.799 2231.48 778.697 2205.08 778.25C2181.1 777.488 2158.44 772.323 2141 755L2139.1 753.242C2118.74 732.696 2117.61 694.83 2117.62 668.021C2117.64 665.729 2117.65 663.436 2117.66 661.143C2117.66 658.656 2117.66 656.17 2117.66 653.684C2117.66 648.387 2117.66 643.09 2117.68 637.793C2117.71 630.135 2117.71 622.477 2117.72 614.819C2117.72 602.387 2117.74 589.955 2117.77 577.523C2117.8 565.465 2117.82 553.406 2117.83 541.348C2117.83 540.601 2117.84 539.855 2117.84 539.086C2117.84 535.341 2117.84 531.595 2117.85 527.85C2117.88 496.9 2117.93 465.95 2118 435H2193C2193.03 446.584 2193.03 446.584 2193.06 458.401Z" fill="#F2F2F2"/>
<path d="M2193.06 458.401C2193.12 483.137 2193.2 507.873 2193.28 532.608C2193.29 536.453 2193.3 540.299 2193.32 544.144C2193.32 544.909 2193.32 545.674 2193.32 546.463C2193.36 558.841 2193.4 571.22 2193.43 583.599C2193.46 596.309 2193.5 609.019 2193.54 621.729C2193.57 629.566 2193.59 637.403 2193.61 645.24C2193.62 651.259 2193.64 657.279 2193.67 663.298C2193.68 665.76 2193.68 668.222 2193.68 670.684C2193.69 674.056 2193.7 677.428 2193.72 680.8C2193.72 682.247 2193.72 682.248 2193.71 683.725C2193.78 692.409 2193.89 701.676 2199 709C2204.4 713.017 2210.56 712.613 2217 712C2220.03 711.409 2221.32 710.766 2224 709C2228.24 701.5 2228.15 693.744 2228.16 685.37C2228.16 684.299 2228.17 683.228 2228.17 682.125C2228.19 678.537 2228.2 674.948 2228.2 671.36C2228.21 668.788 2228.22 666.215 2228.23 663.643C2228.26 658.105 2228.27 652.567 2228.29 647.029C2228.31 639.023 2228.34 631.015 2228.37 623.009C2228.42 610.018 2228.46 597.027 2228.5 584.036C2228.54 571.418 2228.58 558.8 2228.63 546.182C2228.63 545.404 2228.63 544.626 2228.63 543.824C2228.65 539.921 2228.66 536.017 2228.68 532.114C2228.79 499.743 2228.9 467.371 2229 435H2305C2305.04 466.109 2305.08 497.217 2305.1 528.326C2305.1 532.009 2305.11 535.693 2305.11 539.376C2305.11 540.109 2305.11 540.842 2305.11 541.598C2305.12 553.427 2305.13 565.257 2305.15 577.086C2305.17 589.248 2305.18 601.411 2305.19 613.573C2305.19 620.394 2305.2 627.215 2305.21 634.036C2305.22 640.472 2305.23 646.908 2305.22 653.344C2305.23 655.691 2305.23 658.038 2305.24 660.385C2305.34 692.789 2304.17 731.762 2280.39 756.723C2260.33 775.799 2231.48 778.697 2205.08 778.25C2181.1 777.488 2158.44 772.323 2141 755L2139.1 753.242C2118.74 732.696 2117.61 694.83 2117.62 668.021C2117.64 665.729 2117.65 663.436 2117.66 661.143C2117.66 658.656 2117.66 656.17 2117.66 653.684C2117.66 648.387 2117.66 643.09 2117.68 637.793C2117.71 630.135 2117.71 622.477 2117.72 614.819C2117.72 602.387 2117.74 589.955 2117.77 577.523C2117.8 565.465 2117.82 553.406 2117.83 541.348C2117.83 540.601 2117.84 539.855 2117.84 539.086C2117.84 535.341 2117.84 531.595 2117.85 527.85C2117.88 496.9 2117.93 465.95 2118 435H2193C2193.03 446.584 2193.03 446.584 2193.06 458.401Z" stroke="black"/>
<path d="M2719.63 447.035C2755.27 423.357 2819.53 420.461 2853.5 449.375C2869.36 464.815 2875.3 487.749 2876.09 509.391C2876.11 511.764 2876.11 514.135 2876.1 516.508C2876.1 517.264 2876.1 518.021 2876.1 518.801C2876.09 521.575 2876.08 524.35 2876.06 527.125L2876 546H2807L2806 519C2803.71 507.283 2803.71 507.282 2796.5 499.188C2790.88 496.516 2785.14 496.475 2779 497C2775.58 498.29 2775.58 498.29 2773 500L2770 501C2768.82 503.376 2768.82 503.376 2768 506L2767 509C2766.24 517.986 2769.35 523.094 2774.81 530.062C2783.37 540.193 2792.85 549.622 2803.27 557.832C2806.37 560.293 2809.37 562.859 2812.38 565.438C2816.7 569.127 2821.1 572.68 2825.63 576.125C2852.11 596.34 2871.05 618.304 2877.25 652C2881.29 683.166 2880.82 720.045 2861.56 746.5C2860.07 748.356 2858.55 750.192 2857 752L2855.11 754.234C2839.24 771.467 2814.82 777.036 2792.33 778.13C2765.13 779.071 2735.9 775.853 2714.53 757.402C2695.35 739.197 2689.96 712.451 2689 687C2688.84 678.543 2688.91 670.083 2688.94 661.625L2689 638H2766C2766.31 662.687 2766.31 662.688 2766.39 670.397C2765.9 690.433 2765.9 690.434 2774 708C2778.35 711.935 2781.92 712.643 2787.6 712.379C2792.71 711.573 2795.2 709.04 2798.25 705.062C2803.85 693.953 2802.53 680.171 2798.96 668.633C2794.67 657.731 2788.01 649.421 2780 641L2777.59 638.461C2772.58 633.325 2767.33 628.702 2761.73 624.223C2758.24 621.378 2754.91 618.375 2751.58 615.336C2749.51 613.457 2747.4 611.622 2745.28 609.793C2732.67 598.768 2720.66 586.731 2711 573C2710.41 572.169 2710.41 572.169 2709.81 571.32C2693.27 547.697 2686.36 522.827 2691.13 494.062C2694.7 475.35 2704.23 458.559 2719.63 447.035Z" fill="#F2F2F2"/>
<path d="M2719.63 447.035C2755.27 423.357 2819.53 420.461 2853.5 449.375C2869.36 464.815 2875.3 487.749 2876.09 509.391C2876.11 511.764 2876.11 514.135 2876.1 516.508C2876.1 517.264 2876.1 518.021 2876.1 518.801C2876.09 521.575 2876.08 524.35 2876.06 527.125L2876 546H2807L2806 519C2803.71 507.283 2803.71 507.282 2796.5 499.188C2790.88 496.516 2785.14 496.475 2779 497C2775.58 498.29 2775.58 498.29 2773 500L2770 501C2768.82 503.376 2768.82 503.376 2768 506L2767 509C2766.24 517.986 2769.35 523.094 2774.81 530.062C2783.37 540.193 2792.85 549.622 2803.27 557.832C2806.37 560.293 2809.37 562.859 2812.38 565.438C2816.7 569.127 2821.1 572.68 2825.63 576.125C2852.11 596.34 2871.05 618.304 2877.25 652C2881.29 683.166 2880.82 720.045 2861.56 746.5C2860.07 748.356 2858.55 750.192 2857 752L2855.11 754.234C2839.24 771.467 2814.82 777.036 2792.33 778.13C2765.13 779.071 2735.9 775.853 2714.53 757.402C2695.35 739.197 2689.96 712.451 2689 687C2688.84 678.543 2688.91 670.083 2688.94 661.625L2689 638H2766C2766.31 662.687 2766.31 662.688 2766.39 670.397C2765.9 690.433 2765.9 690.434 2774 708C2778.35 711.935 2781.92 712.643 2787.6 712.379C2792.71 711.573 2795.2 709.04 2798.25 705.062C2803.85 693.953 2802.53 680.171 2798.96 668.633C2794.67 657.731 2788.01 649.421 2780 641L2777.59 638.461C2772.58 633.325 2767.33 628.702 2761.73 624.223C2758.24 621.378 2754.91 618.375 2751.58 615.336C2749.51 613.457 2747.4 611.622 2745.28 609.793C2732.67 598.768 2720.66 586.731 2711 573C2710.41 572.169 2710.41 572.169 2709.81 571.32C2693.27 547.697 2686.36 522.827 2691.13 494.062C2694.7 475.35 2704.23 458.559 2719.63 447.035Z" stroke="black"/>
<path d="M3390.19 952.719C3390.23 958.886 3390.28 965.054 3390.32 971.222C3390.38 979.149 3390.44 987.077 3390.5 995.004C3390.75 1034.49 3390.75 1034.49 3391.49 1073.97C3391.52 1075.13 3391.52 1075.13 3391.54 1076.32C3392.59 1116.88 3395.59 1157.11 3408 1196C3413.73 1181.55 3416.88 1166.13 3419.25 1150.81C3419.4 1149.84 3419.55 1148.87 3419.71 1147.87C3422.15 1131.14 3423.36 1114.25 3424.09 1097.37C3424.13 1096.43 3424.17 1095.49 3424.21 1094.52C3425.51 1064.22 3425.45 1033.88 3425.59 1003.55C3425.64 993.595 3425.7 983.639 3425.76 973.683C3425.85 958.122 3425.92 942.561 3426 927H3501C3501.08 960.116 3501.08 960.116 3501.1 974.248C3501.11 983.915 3501.12 993.582 3501.15 1003.25C3501.35 1073.7 3501.35 1073.7 3499 1102C3498.92 1102.99 3498.84 1103.99 3498.76 1105.01C3498.31 1110.29 3497.77 1115.55 3497.13 1120.81C3496.95 1122.31 3496.78 1123.81 3496.6 1125.3C3490.89 1173.3 3478.07 1219.84 3452 1261C3451.46 1262.03 3451.46 1262.03 3450.91 1263.08C3448.07 1265.94 3445.09 1265.64 3441.28 1265.68C3440.49 1265.7 3439.7 1265.72 3438.9 1265.75C3436.29 1265.81 3433.69 1265.85 3431.09 1265.88C3429.75 1265.9 3429.75 1265.9 3428.39 1265.92C3423.67 1266 3418.95 1266.04 3414.24 1266.07C3409.37 1266.1 3404.52 1266.22 3399.66 1266.36C3395.91 1266.45 3392.17 1266.47 3388.42 1266.48C3386.63 1266.5 3384.84 1266.54 3383.05 1266.6C3369.45 1267.05 3369.45 1267.05 3365.38 1263.64C3362.11 1259.83 3360.08 1255.54 3358 1251C3356.97 1249.15 3355.92 1247.31 3354.85 1245.48C3329.08 1197.24 3319.27 1144.17 3316 1090C3315.96 1089.35 3315.92 1088.71 3315.88 1088.04C3314.85 1071.44 3314.87 1054.83 3314.9 1038.2C3314.91 1034.27 3314.91 1030.35 3314.91 1026.43C3314.91 1019.03 3314.92 1011.64 3314.93 1004.24C3314.94 994.226 3314.95 984.209 3314.95 974.192C3314.96 958.462 3314.98 942.731 3315 927H3390L3390.19 952.719Z" fill="#F2F2F2"/>
<path d="M3390.19 952.719C3390.23 958.886 3390.28 965.054 3390.32 971.222C3390.38 979.149 3390.44 987.077 3390.5 995.004C3390.75 1034.49 3390.75 1034.49 3391.49 1073.97C3391.52 1075.13 3391.52 1075.13 3391.54 1076.32C3392.59 1116.88 3395.59 1157.11 3408 1196C3413.73 1181.55 3416.88 1166.13 3419.25 1150.81C3419.4 1149.84 3419.55 1148.87 3419.71 1147.87C3422.15 1131.14 3423.36 1114.25 3424.09 1097.37C3424.13 1096.43 3424.17 1095.49 3424.21 1094.52C3425.51 1064.22 3425.45 1033.88 3425.59 1003.55C3425.64 993.595 3425.7 983.639 3425.76 973.683C3425.85 958.122 3425.92 942.561 3426 927H3501C3501.08 960.116 3501.08 960.116 3501.1 974.248C3501.11 983.915 3501.12 993.582 3501.15 1003.25C3501.35 1073.7 3501.35 1073.7 3499 1102C3498.92 1102.99 3498.84 1103.99 3498.76 1105.01C3498.31 1110.29 3497.77 1115.55 3497.13 1120.81C3496.95 1122.31 3496.78 1123.81 3496.6 1125.3C3490.89 1173.3 3478.07 1219.84 3452 1261C3451.46 1262.03 3451.46 1262.03 3450.91 1263.08C3448.07 1265.94 3445.09 1265.64 3441.28 1265.68C3440.49 1265.7 3439.7 1265.72 3438.9 1265.75C3436.29 1265.81 3433.69 1265.85 3431.09 1265.88C3429.75 1265.9 3429.75 1265.9 3428.39 1265.92C3423.67 1266 3418.95 1266.04 3414.24 1266.07C3409.37 1266.1 3404.52 1266.22 3399.66 1266.36C3395.91 1266.45 3392.17 1266.47 3388.42 1266.48C3386.63 1266.5 3384.84 1266.54 3383.05 1266.6C3369.45 1267.05 3369.45 1267.05 3365.38 1263.64C3362.11 1259.83 3360.08 1255.54 3358 1251C3356.97 1249.15 3355.92 1247.31 3354.85 1245.48C3329.08 1197.24 3319.27 1144.17 3316 1090C3315.96 1089.35 3315.92 1088.71 3315.88 1088.04C3314.85 1071.44 3314.87 1054.83 3314.9 1038.2C3314.91 1034.27 3314.91 1030.35 3314.91 1026.43C3314.91 1019.03 3314.92 1011.64 3314.93 1004.24C3314.94 994.226 3314.95 984.209 3314.95 974.192C3314.96 958.462 3314.98 942.731 3315 927H3390L3390.19 952.719Z" stroke="black"/>
<path d="M2362 927C2508.83 927 2508.83 927 2529.11 946.816C2551.23 972.411 2552.06 1013.03 2549.78 1045.07C2548.21 1061.24 2544.9 1076.78 2535 1090L2533.07 1092.58C2520.53 1107.22 2498.77 1110.63 2481 1113H2438V1265H2362V927ZM2468 993C2458.67 985.004 2446.7 987 2435 987V1055C2453.71 1056.24 2453.71 1056.24 2469.5 1048.75C2474.39 1039.78 2475.2 1031.4 2475.25 1021.31L2475.31 1018.17C2475.36 1008.95 2474.07 1000.28 2468 993Z" fill="#F2F2F2"/>
<path d="M2362 927C2508.83 927 2508.83 927 2529.11 946.816C2551.23 972.411 2552.06 1013.03 2549.78 1045.07C2548.21 1061.24 2544.9 1076.78 2535 1090L2533.07 1092.58C2520.53 1107.22 2498.77 1110.63 2481 1113H2438V1265H2362V927ZM2468 993C2458.67 985.004 2446.7 987 2435 987V1055C2453.71 1056.24 2453.71 1056.24 2469.5 1048.75C2474.39 1039.78 2475.2 1031.4 2475.25 1021.31L2475.31 1018.17C2475.36 1008.95 2474.07 1000.28 2468 993Z" stroke="black"/>
<path d="M2323 992H2246V1049H2320V1113H2246V1200H2327V1265H2170V927H2323V992Z" fill="#F2F2F2"/>
<path d="M2323 992H2246V1049H2320V1113H2246V1200H2327V1265H2170V927H2323V992Z" stroke="black"/>
<path d="M3173 990H3129V1265H3054V990H3010V927H3173V990Z" fill="#F2F2F2"/>
<path d="M3173 990H3129V1265H3054V990H3010V927H3173V990Z" stroke="black"/>
<path d="M2089 498H2045V773H1970V498H1926V435H2089V498Z" fill="#F2F2F2"/>
<path d="M2089 498H2045V773H1970V498H1926V435H2089V498Z" stroke="black"/>
<path d="M3278 1265H3202V927H3278V1265Z" fill="#F2F2F2"/>
<path d="M3278 1265H3202V927H3278V1265Z" stroke="black"/>
<path d="M2649 773H2573V435H2649V773Z" fill="#F2F2F2"/>
<path d="M2649 773H2573V435H2649V773Z" stroke="black"/>
</svg>
